<?xml version="1.0" standalone="no"?>
<!DOCTYPE svg PUBLIC "-//W3C//DTD SVG 1.1//EN" "http://www.w3.org/Graphics/SVG/1.1/DTD/svg11.dtd" >
<svg>
<metadata>
Created by FontForge 20090914 at Fri Jan 15 17:59:29 2021
 By www-data
</metadata>
<defs>
<font id="Gouranga-Shadow" horiz-adv-x="540" >
  <font-face 
    font-family="Gouranga Shadow"
    font-weight="700"
    font-stretch="normal"
    units-per-em="1000"
    panose-1="0 0 0 0 0 0 0 0 0 0"
    ascent="800"
    descent="-200"
    x-height="540"
    cap-height="720"
    bbox="-60 -360 1140 960"
    underline-thickness="50"
    underline-position="-75"
    unicode-range="U+000D-U+2260"
  />
<missing-glyph horiz-adv-x="250" 
 />
    <glyph glyph-name=".notdef" horiz-adv-x="250" 
 />
    <glyph glyph-name="uni0000" horiz-adv-x="0" 
 />
    <glyph glyph-name="uni0000" horiz-adv-x="0" 
 />
    <glyph glyph-name="uni000D" unicode="&#xd;" horiz-adv-x="250" 
 />
    <glyph glyph-name="space" unicode=" " horiz-adv-x="240" 
 />
    <glyph glyph-name="exclam" unicode="!" horiz-adv-x="240" 
d="M300 720v-840h-240v840h240z" />
    <glyph glyph-name="quotedbl" unicode="&#x22;" horiz-adv-x="420" 
d="M60 780h420v-360h-420v360z" />
    <glyph glyph-name="numbersign" unicode="#" horiz-adv-x="720" 
d="M60 300h60v240h120v180h480v-180h60v-240h-60v-240h-120v-180h-480v180h-60v240z" />
    <glyph glyph-name="dollar" unicode="$" horiz-adv-x="600" 
d="M60 -60v240h60v60h-60v420h60v60h120v120h240v-120h120v-60h60v-240h-60v-60h60v-420h-60v-60h-120v-120h-240v120h-120v60h-60zM300 120h120v60h-120v-60zM300 480v-60h120v60h-120z" />
    <glyph glyph-name="percent" unicode="%" 
d="M60 120h60v120h60v120h-120v360h540v-240h-60v-120h-60v-120h120v-360h-540v240z" />
    <glyph glyph-name="ampersand" unicode="&#x26;" horiz-adv-x="600" 
d="M120 660v60h420v-60h60v-240h60v-240h-60v-240h-60v-60h-420v60h-60v720h60zM300 180v-60h60v60h-60zM300 420h60v60h-60v-60z" />
    <glyph glyph-name="quotesingle" unicode="'" horiz-adv-x="240" 
d="M60 780h240v-360h-240v360z" />
    <glyph glyph-name="parenleft" unicode="(" horiz-adv-x="420" 
d="M60 -120v720h60v60h120v60h240v-240h-120v-60h-60v-360h60v-60h120v-240h-240v60h-120v60h-60z" />
    <glyph glyph-name="parenright" unicode=")" horiz-adv-x="420" 
d="M60 0h120v60h60v360h-60v60h-120v240h240v-60h120v-60h60v-720h-60v-60h-120v-60h-240v240z" />
    <glyph glyph-name="asterisk" unicode="*" horiz-adv-x="600" 
d="M60 600v180h180v60h240v-60h180v-180h-60v-60h60v-180h-180v-60h-240v60h-180v180h60v60h-60z" />
    <glyph glyph-name="plus" unicode="+" horiz-adv-x="480" 
d="M60 240v240h120v120h240v-120h120v-240h-120v-120h-240v120h-120z" />
    <glyph glyph-name="comma" unicode="," horiz-adv-x="240" 
d="M60 -300v420h240v-300h-60v-120h-180z" />
    <glyph glyph-name="hyphen" unicode="-" horiz-adv-x="480" 
d="M60 240v240h480v-240h-480z" />
    <glyph glyph-name="period" unicode="." horiz-adv-x="240" 
d="M60 120h240v-240h-240v240z" />
    <glyph glyph-name="slash" unicode="/" horiz-adv-x="600" 
d="M60 -180v240h60v120h60v120h60v120h60v120h60v120h60v120h240v-240h-60v-120h-60v-120h-60v-120h-60v-120h-60v-120h-60v-120h-240z" />
    <glyph glyph-name="zero" unicode="0" 
d="M120 660v60h420v-60h60v-720h-60v-60h-420v60h-60v720h60zM360 120v360h-60v-360h60z" />
    <glyph glyph-name="one" unicode="1" horiz-adv-x="360" 
d="M60 -120v240h60v360h-60v180h60v60h240v-600h60v-240h-360z" />
    <glyph glyph-name="two" unicode="2" 
d="M120 360v60h-60v240h60v60h420v-60h60v-420h-60v-60h-240v-60h300v-240h-540v480h60zM300 420h60v60h-60v-60z" />
    <glyph glyph-name="three" unicode="3" 
d="M120 660v60h420v-60h60v-720h-60v-60h-420v60h-60v240h120v240h-120v240h60zM300 420h60v60h-60v-60zM360 120v60h-60v-60h60z" />
    <glyph glyph-name="four" unicode="4" horiz-adv-x="600" 
d="M60 120v360h60v120h60v60h60v60h360v-360h60v-240h-60v-240h-240v240h-300z" />
    <glyph glyph-name="five" unicode="5" 
d="M600 720v-240h-300v-60h240v-60h60v-420h-60v-60h-420v60h-60v780h540zM300 180v-60h60v60h-60z" />
    <glyph glyph-name="six" unicode="6" 
d="M120 660v60h420v-60h60v-720h-60v-60h-420v60h-60v720h60zM300 420h60v60h-60v-60zM300 180v-60h60v60h-60z" />
    <glyph glyph-name="seven" unicode="7" 
d="M60 720h540v-420h-60v-60h-60v-120h-60v-240h-240v420h60v120h60v60h-240v240z" />
    <glyph glyph-name="eight" unicode="8" 
d="M60 660h60v60h420v-60h60v-720h-60v-60h-420v60h-60v720zM300 180v-60h60v60h-60zM300 480v-60h60v60h-60z" />
    <glyph glyph-name="nine" unicode="9" 
d="M60 660h60v60h420v-60h60v-720h-60v-60h-420v60h-60v720zM300 180v-60h60v60h-60zM300 420h60v60h-60v-60z" />
    <glyph glyph-name="colon" unicode=":" horiz-adv-x="240" 
d="M60 120h240v-240h-240v240zM60 180v240h240v-240h-240z" />
    <glyph glyph-name="semicolon" unicode=";" horiz-adv-x="240" 
d="M60 -300v420h240v-300h-60v-120h-180zM60 420h240v-240h-240v240z" />
    <glyph glyph-name="less" unicode="&#x3c;" horiz-adv-x="360" 
d="M60 420h60v60h60v60h60v60h180v-240h-60v-60h60v-240h-180v60h-60v60h-60v60h-60v180z" />
    <glyph glyph-name="equal" unicode="=" 
d="M60 120v420h540v-420h-540z" />
    <glyph glyph-name="greater" unicode="&#x3e;" horiz-adv-x="360" 
d="M240 600v-60h60v-60h60v-60h60v-180h-60v-60h-60v-60h-60v-60h-180v240h60v60h-60v240h180z" />
    <glyph glyph-name="question" unicode="?" 
d="M120 660v60h420v-60h60v-480h-60v-60h-180v-240h-240v420h60v60h-120v300h60zM300 480v-120h60v120h-60z" />
    <glyph glyph-name="at" unicode="@" horiz-adv-x="1020" 
d="M60 -60v780h60v60h120v60h660v-60h120v-60h60v-600h-60v-60h-120v-60h-60v-180h-600v60h-120v60h-60z" />
    <glyph glyph-name="uni0410" unicode="A" 
d="M120 660v60h420v-60h60v-780h-240v240h-60v-240h-240v780h60zM300 480v-120h60v120h-60z" />
    <glyph glyph-name="uni0410" unicode="&#x410;" 
d="M120 660v60h420v-60h60v-780h-240v240h-60v-240h-240v780h60zM300 480v-120h60v120h-60z" />
    <glyph glyph-name="uni0410" unicode="&#x391;" 
d="M120 660v60h420v-60h60v-780h-240v240h-60v-240h-240v780h60zM300 480v-120h60v120h-60z" />
    <glyph glyph-name="B" unicode="B" 
d="M60 -120v840h480v-60h60v-720h-60v-60h-480zM360 120v60h-60v-60h60zM300 480v-60h60v60h-60z" />
    <glyph glyph-name="B" unicode="&#x412;" 
d="M60 -120v840h480v-60h60v-720h-60v-60h-480zM360 120v60h-60v-60h60zM300 480v-60h60v60h-60z" />
    <glyph glyph-name="B" unicode="&#x392;" 
d="M60 -120v840h480v-60h60v-720h-60v-60h-480zM360 120v60h-60v-60h60zM300 480v-60h60v60h-60z" />
    <glyph glyph-name="C" unicode="C" 
d="M60 -60v720h60v60h420v-60h60v-300h-240v120h-60v-360h60v180h240v-360h-60v-60h-420v60h-60z" />
    <glyph glyph-name="C" unicode="&#x421;" 
d="M60 -60v720h60v60h420v-60h60v-300h-240v120h-60v-360h60v180h240v-360h-60v-60h-420v60h-60z" />
    <glyph glyph-name="D" unicode="D" 
d="M60 720h480v-60h60v-720h-60v-60h-480v840zM300 480v-360h60v360h-60z" />
    <glyph glyph-name="E" unicode="E" 
d="M60 -120v840h540v-240h-300v-60h240v-240h-240v-60h300v-240h-540z" />
    <glyph glyph-name="E" unicode="&#x415;" 
d="M60 -120v840h540v-240h-300v-60h240v-240h-240v-60h300v-240h-540z" />
    <glyph glyph-name="E" unicode="&#x395;" 
d="M60 -120v840h540v-240h-300v-60h240v-240h-240v-60h300v-240h-540z" />
    <glyph glyph-name="F" unicode="F" 
d="M60 720h540v-240h-300v-60h240v-240h-240v-300h-240v840z" />
    <glyph glyph-name="G" unicode="G" 
d="M60 660h60v60h420v-60h60v-720h-60v-60h-420v60h-60v720zM360 360v120h-60v-120h60z" />
    <glyph glyph-name="uni041D" unicode="H" 
d="M60 -120v840h240v-360h60v360h240v-840h-240v240h-60v-240h-240z" />
    <glyph glyph-name="uni041D" unicode="&#x41d;" 
d="M60 -120v840h240v-360h60v360h240v-840h-240v240h-60v-240h-240z" />
    <glyph glyph-name="uni041D" unicode="&#x397;" 
d="M60 -120v840h240v-360h60v360h240v-840h-240v240h-60v-240h-240z" />
    <glyph glyph-name="I" unicode="I" horiz-adv-x="360" 
d="M60 120h60v360h-60v240h360v-240h-60v-360h60v-240h-360v240z" />
    <glyph glyph-name="I" unicode="&#x406;" horiz-adv-x="360" 
d="M60 120h60v360h-60v240h360v-240h-60v-360h60v-240h-360v240z" />
    <glyph glyph-name="I" unicode="&#x399;" horiz-adv-x="360" 
d="M60 120h60v360h-60v240h360v-240h-60v-360h60v-240h-360v240z" />
    <glyph glyph-name="J" unicode="J" horiz-adv-x="600" 
d="M60 300h240v-180h60v360h-60v240h360v-240h-60v-540h-60v-60h-420v60h-60v360z" />
    <glyph glyph-name="J" unicode="&#x408;" horiz-adv-x="600" 
d="M60 300h240v-180h60v360h-60v240h360v-240h-60v-540h-60v-60h-420v60h-60v360z" />
    <glyph glyph-name="Kappa" unicode="K" horiz-adv-x="660" 
d="M60 -120v840h240v-180h60v60h60v60h60v60h240v-240h-60v-60h-60v-60h-60v-120h60v-60h60v-60h60v-240h-240v60h-60v60h-60v60h-60v-180h-240z" />
    <glyph glyph-name="Kappa" unicode="&#x39a;" horiz-adv-x="660" 
d="M60 -120v840h240v-180h60v60h60v60h60v60h240v-240h-60v-60h-60v-60h-60v-120h60v-60h60v-60h60v-240h-240v60h-60v60h-60v60h-60v-180h-240z" />
    <glyph glyph-name="L" unicode="L" 
d="M60 720h240v-600h300v-240h-540v840z" />
    <glyph glyph-name="uni041C" unicode="M" horiz-adv-x="840" 
d="M120 660v60h720v-60h60v-780h-240v600h-60v-600h-240v600h-60v-600h-240v780h60z" />
    <glyph glyph-name="uni041C" unicode="&#x41c;" horiz-adv-x="840" 
d="M120 660v60h720v-60h60v-780h-240v600h-60v-600h-240v600h-60v-600h-240v780h60z" />
    <glyph glyph-name="uni041C" unicode="&#x39c;" horiz-adv-x="840" 
d="M120 660v60h720v-60h60v-780h-240v600h-60v-600h-240v600h-60v-600h-240v780h60z" />
    <glyph glyph-name="Nu" unicode="N" 
d="M60 720h480v-60h60v-780h-240v600h-60v-600h-240v840z" />
    <glyph glyph-name="Nu" unicode="&#x39d;" 
d="M60 720h480v-60h60v-780h-240v600h-60v-600h-240v840z" />
    <glyph glyph-name="uni041E" unicode="O" 
d="M120 660v60h420v-60h60v-720h-60v-60h-420v60h-60v720h60zM360 120v360h-60v-360h60z" />
    <glyph glyph-name="uni041E" unicode="&#x41e;" 
d="M120 660v60h420v-60h60v-720h-60v-60h-420v60h-60v720h60zM360 120v360h-60v-360h60z" />
    <glyph glyph-name="uni041E" unicode="&#x39f;" 
d="M120 660v60h420v-60h60v-720h-60v-60h-420v60h-60v720h60zM360 120v360h-60v-360h60z" />
    <glyph glyph-name="Rho" unicode="P" 
d="M60 720h480v-60h60v-480h-60v-60h-240v-240h-240v840zM360 360v120h-60v-120h60z" />
    <glyph glyph-name="Rho" unicode="&#x420;" 
d="M60 720h480v-60h60v-480h-60v-60h-240v-240h-240v840zM360 360v120h-60v-120h60z" />
    <glyph glyph-name="Rho" unicode="&#x3a1;" 
d="M60 720h480v-60h60v-480h-60v-60h-240v-240h-240v840zM360 360v120h-60v-120h60z" />
    <glyph glyph-name="Q" unicode="Q" horiz-adv-x="600" 
d="M60 -60v720h60v60h420v-60h60v-540h60v-240h-540v60h-60zM300 180h60v300h-60v-300z" />
    <glyph glyph-name="R" unicode="R" 
d="M60 -120v840h480v-60h60v-780h-240v240h-60v-240h-240zM300 360h60v120h-60v-120z" />
    <glyph glyph-name="uni0405" unicode="S" 
d="M60 180h60v60h-60v420h60v60h420v-60h60v-240h-60v-60h60v-420h-60v-60h-420v60h-60v240zM360 120v60h-60v-60h60zM300 420h60v60h-60v-60z" />
    <glyph glyph-name="uni0405" unicode="&#x405;" 
d="M60 180h60v60h-60v420h60v60h420v-60h60v-240h-60v-60h60v-420h-60v-60h-420v60h-60v240zM360 120v60h-60v-60h60zM300 420h60v60h-60v-60z" />
    <glyph glyph-name="T" unicode="T" horiz-adv-x="480" 
d="M60 720h480v-240h-120v-600h-240v600h-120v240z" />
    <glyph glyph-name="T" unicode="&#x422;" horiz-adv-x="480" 
d="M60 720h480v-240h-120v-600h-240v600h-120v240z" />
    <glyph glyph-name="T" unicode="&#x3a4;" horiz-adv-x="480" 
d="M60 720h480v-240h-120v-600h-240v600h-120v240z" />
    <glyph glyph-name="U" unicode="U" 
d="M60 -60v780h240v-600h60v600h240v-780h-60v-60h-420v60h-60z" />
    <glyph glyph-name="V" unicode="V" horiz-adv-x="600" 
d="M60 240v480h240v-300h120v300h240v-480h-60v-120h-60v-180h-60v-60h-240v60h-60v180h-60v120h-60z" />
    <glyph glyph-name="W" unicode="W" horiz-adv-x="840" 
d="M60 180v540h240v-360h60v360h240v-360h60v360h240v-540h-60v-120h-60v-120h-60v-60h-180v60h-120v-60h-180v60h-60v120h-60v120h-60z" />
    <glyph glyph-name="X" unicode="X" 
d="M60 360v360h240v-180h60v180h240v-360h-60v-120h60v-360h-240v180h-60v-180h-240v360h60v120h-60z" />
    <glyph glyph-name="X" unicode="&#x425;" 
d="M60 360v360h240v-180h60v180h240v-360h-60v-120h60v-360h-240v180h-60v-180h-240v360h60v120h-60z" />
    <glyph glyph-name="X" unicode="&#x3a7;" 
d="M60 360v360h240v-180h60v180h240v-360h-60v-120h60v-360h-240v180h-60v-180h-240v360h60v120h-60z" />
    <glyph glyph-name="Y" unicode="Y" horiz-adv-x="600" 
d="M60 720h240v-240h120v240h240v-420h-60v-120h-60v-60h-60v-240h-240v240h-60v60h-60v120h-60v420z" />
    <glyph glyph-name="Y" unicode="&#x3a5;" horiz-adv-x="600" 
d="M60 720h240v-240h120v240h240v-420h-60v-120h-60v-60h-60v-240h-240v240h-60v60h-60v120h-60v420z" />
    <glyph glyph-name="Zeta" unicode="Z" horiz-adv-x="480" 
d="M60 -120v420h60v60h60v60h60v60h-180v240h480v-420h-60v-60h-60v-60h-60v-60h180v-240h-480z" />
    <glyph glyph-name="Zeta" unicode="&#x396;" horiz-adv-x="480" 
d="M60 -120v420h60v60h60v60h60v60h-180v240h480v-420h-60v-60h-60v-60h-60v-60h180v-240h-480z" />
    <glyph glyph-name="bracketleft" unicode="[" horiz-adv-x="360" 
d="M60 720h360v-240h-120v-480h120v-240h-360v960z" />
    <glyph glyph-name="backslash" unicode="\" horiz-adv-x="600" 
d="M60 780h240v-120h60v-120h60v-120h60v-120h60v-120h60v-120h60v-240h-240v120h-60v120h-60v120h-60v120h-60v120h-60v120h-60v240z" />
    <glyph glyph-name="bracketright" unicode="]" horiz-adv-x="360" 
d="M180 0v480h-120v240h360v-960h-360v240h120z" />
    <glyph glyph-name="asciicircum" unicode="^" 
d="M60 480v180h60v60h60v60h60v60h180v-60h60v-60h60v-60h60v-180h-240v60h-60v-60h-240z" />
    <glyph glyph-name="underscore" unicode="_" 
d="M60 -120h540v-240h-540v240z" />
    <glyph glyph-name="grave" unicode="`" horiz-adv-x="360" 
d="M300 960v-60h60v-60h60v-180h-240v60h-60v60h-60v180h240z" />
    <glyph glyph-name="uni0430" unicode="a" 
d="M60 -60v540h60v60h420v-60h60v-600h-480v60h-60z" />
    <glyph glyph-name="uni0430" unicode="&#x430;" 
d="M60 -60v540h60v60h420v-60h60v-600h-480v60h-60z" />
    <glyph glyph-name="b" unicode="b" 
d="M60 720h240v-240h240v-60h60v-480h-60v-60h-480v840zM360 120v120h-60v-120h60z" />
    <glyph glyph-name="uni0441" unicode="c" 
d="M60 -60v540h60v60h420v-60h60v-240h-240v60h-60v-180h60v60h240v-240h-60v-60h-420v60h-60z" />
    <glyph glyph-name="uni0441" unicode="&#x441;" 
d="M60 -60v540h60v60h420v-60h60v-240h-240v60h-60v-180h60v60h240v-240h-60v-60h-420v60h-60z" />
    <glyph glyph-name="d" unicode="d" 
d="M60 -60v480h60v60h240v240h240v-840h-480v60h-60zM360 120v120h-60v-120h60z" />
    <glyph glyph-name="uni0435" unicode="e" 
d="M60 -60v540h60v60h420v-60h60v-540h-60v-60h-420v60h-60z" />
    <glyph glyph-name="uni0435" unicode="&#x435;" 
d="M60 -60v540h60v60h420v-60h60v-540h-60v-60h-420v60h-60z" />
    <glyph glyph-name="f" unicode="f" 
d="M60 -180v900h60v60h420v-60h60v-240h-240v60h-60v-180h240v-180h-240v-360h-240z" />
    <glyph glyph-name="g" unicode="g" 
d="M60 480h60v60h420v-60h60v-780h-60v-60h-420v60h-60v780zM360 120v180h-60v-180h60z" />
    <glyph glyph-name="h" unicode="h" 
d="M300 720v-180h240v-60h60v-600h-240v420h-60v-420h-240v840h240z" />
    <glyph glyph-name="i" unicode="i" horiz-adv-x="240" 
d="M300 720v-840h-240v840h240z" />
    <glyph glyph-name="i" unicode="&#x456;" horiz-adv-x="240" 
d="M300 720v-840h-240v840h240z" />
    <glyph glyph-name="j" unicode="j" horiz-adv-x="360" 
d="M60 -120h120v840h240v-1020h-60v-60h-300v240z" />
    <glyph glyph-name="j" unicode="&#x458;" horiz-adv-x="360" 
d="M60 -120h120v840h240v-1020h-60v-60h-300v240z" />
    <glyph glyph-name="k" unicode="k" 
d="M300 720v-240h60v60h240v-240h-60v-60h-60v-60h60v-60h60v-240h-240v60h-60v-60h-240v840h240z" />
    <glyph glyph-name="l" unicode="l" horiz-adv-x="240" 
d="M300 720v-840h-240v840h240z" />
    <glyph glyph-name="m" unicode="m" horiz-adv-x="840" 
d="M120 480v60h720v-60h60v-600h-240v420h-60v-420h-240v420h-60v-420h-240v600h60z" />
    <glyph glyph-name="n" unicode="n" 
d="M60 540h480v-60h60v-600h-240v420h-60v-420h-240v660z" />
    <glyph glyph-name="o" unicode="o" 
d="M120 480v60h420v-60h60v-540h-60v-60h-420v60h-60v540h60zM300 120h60v180h-60v-180z" />
    <glyph glyph-name="o" unicode="&#x43e;" 
d="M120 480v60h420v-60h60v-540h-60v-60h-420v60h-60v540h60zM300 120h60v180h-60v-180z" />
    <glyph glyph-name="o" unicode="&#x3bf;" 
d="M120 480v60h420v-60h60v-540h-60v-60h-420v60h-60v540h60zM300 120h60v180h-60v-180z" />
    <glyph glyph-name="uni0440" unicode="p" 
d="M540 540v-60h60v-480h-60v-60h-240v-240h-240v840h480zM300 300v-120h60v120h-60z" />
    <glyph glyph-name="uni0440" unicode="&#x440;" 
d="M540 540v-60h60v-480h-60v-60h-240v-240h-240v840h480zM300 300v-120h60v120h-60z" />
    <glyph glyph-name="q" unicode="q" 
d="M60 0v480h60v60h480v-840h-240v240h-240v60h-60zM300 300v-120h60v120h-60z" />
    <glyph glyph-name="r" unicode="r" 
d="M60 540h480v-60h60v-240h-240v60h-60v-420h-240v660z" />
    <glyph glyph-name="s" unicode="s" 
d="M60 -60v540h60v60h420v-60h60v-540h-60v-60h-420v60h-60z" />
    <glyph glyph-name="s" unicode="&#x455;" 
d="M60 -60v540h60v60h420v-60h60v-540h-60v-60h-420v60h-60z" />
    <glyph glyph-name="t" unicode="t" horiz-adv-x="420" 
d="M60 300v240h60v180h240v-180h60v-240h-60v-180h120v-180h-60v-60h-240v60h-60v360h-60z" />
    <glyph glyph-name="u" unicode="u" 
d="M60 -60v600h240v-420h60v420h240v-600h-60v-60h-420v60h-60z" />
    <glyph glyph-name="v" unicode="v" horiz-adv-x="600" 
d="M60 120v420h240v-300h120v300h240v-420h-60v-120h-60v-60h-60v-60h-240v60h-60v60h-60v120h-60z" />
    <glyph glyph-name="w" unicode="w" horiz-adv-x="840" 
d="M60 180v360h240v-240h60v240h240v-240h60v240h240v-360h-60v-120h-60v-120h-60v-60h-180v60h-120v-60h-180v60h-60v120h-60v120h-60z" />
    <glyph glyph-name="uni0445" unicode="x" horiz-adv-x="600" 
d="M300 540v-60h120v60h240v-240h-60v-60h-60v-60h60v-60h60v-240h-240v60h-120v-60h-240v240h60v60h60v60h-60v60h-60v240h240z" />
    <glyph glyph-name="uni0445" unicode="&#x445;" horiz-adv-x="600" 
d="M300 540v-60h120v60h240v-240h-60v-60h-60v-60h60v-60h60v-240h-240v60h-120v-60h-240v240h60v60h60v60h-60v60h-60v240h240z" />
    <glyph glyph-name="y" unicode="y" 
d="M60 -300v840h240v-420h60v420h240v-840h-60v-60h-420v60h-60z" />
    <glyph glyph-name="z" unicode="z" horiz-adv-x="480" 
d="M60 -120v300h60v60h60v60h-120v240h480v-360h-60v-60h60v-240h-480z" />
    <glyph glyph-name="braceleft" unicode="{" horiz-adv-x="480" 
d="M60 120v240h60v240h60v60h120v60h240v-240h-120v-60h-60v-360h60v-60h120v-240h-240v60h-120v60h-60v240h-60z" />
    <glyph glyph-name="bar" unicode="|" horiz-adv-x="240" 
d="M60 780h240v-900h-240v900z" />
    <glyph glyph-name="braceright" unicode="}" horiz-adv-x="480" 
d="M60 0h120v60h60v360h-60v60h-120v240h240v-60h120v-60h60v-240h60v-240h-60v-240h-60v-60h-120v-60h-240v240z" />
    <glyph glyph-name="asciitilde" unicode="~" horiz-adv-x="660" 
d="M60 180v240h60v60h360v-60v60h240v-240h-60v-60h-360v60v-60h-240z" />
    <glyph glyph-name="exclamdown" unicode="&#xa1;" horiz-adv-x="240" 
d="M300 720v-840h-240v840h240z" />
    <glyph glyph-name="cent" unicode="&#xa2;" 
d="M60 0v540h60v60h120v60h180v-60h120v-60h60v-240h-240v60h-60v-180h60v60h240v-240h-60v-60h-120v-60h-180v60h-120v60h-60z" />
    <glyph glyph-name="sterling" unicode="&#xa3;" horiz-adv-x="660" 
d="M60 240v180h120v300h240v-300h120v-180h-120v-120h300v-240h-540v360h-120z" />
    <glyph glyph-name="yen" unicode="&#xa5;" horiz-adv-x="600" 
d="M60 720h240v-180h120v180h240v-360h-60v-360h-120v-120h-240v120h-120v360h-60v360z" />
    <glyph glyph-name="brokenbar" unicode="&#xa6;" horiz-adv-x="240" 
d="M60 780h240v-960h-240v960z" />
    <glyph glyph-name="section" unicode="&#xa7;" 
d="M60 -120v780h60v60h420v-60h60v-780h-60v-60h-420v60h-60z" />
    <glyph glyph-name="dieresis" unicode="&#xa8;" 
d="M360 900h240v-300h-240v300zM60 600v300h240v-300h-240z" />
    <glyph glyph-name="copyright" unicode="&#xa9;" horiz-adv-x="900" 
d="M120 660v60h120v60h540v-60h120v-60h60v-780h-60v-60h-120v-60h-540v60h-120v60h-60v780h60zM480 180h60v60h180v60h-180v60h-60v-180z" />
    <glyph glyph-name="guillemotleft" unicode="&#xab;" horiz-adv-x="600" 
d="M120 420v60h60v60h60v60h180v-60h60v60h180v-240h-60v-60h60v-240h-180v60h-60v-60h-180v60h-60v60h-60v60h-60v180h60z" />
    <glyph glyph-name="logicalnot" unicode="&#xac;" horiz-adv-x="480" 
d="M60 480h480v-300h-240v60h-240v240z" />
    <glyph glyph-name="registered" unicode="&#xae;" horiz-adv-x="960" 
d="M60 -120v780h60v60h120v60h600v-60h120v-60h60v-780h-60v-60h-120v-60h-600v60h-120v60h-60z" />
    <glyph glyph-name="macron" unicode="&#xaf;" horiz-adv-x="420" 
d="M60 840h420v-240h-420v240z" />
    <glyph glyph-name="plusminus" unicode="&#xb1;" horiz-adv-x="480" 
d="M180 540v120h240v-120h120v-240h-120v-60h120v-240h-480v240h120v60h-120v240h120z" />
    <glyph glyph-name="acute" unicode="&#xb4;" horiz-adv-x="360" 
d="M60 660v180h60v60h60v60h240v-180h-60v-60h-60v-60h-240z" />
    <glyph glyph-name="uni03BC" unicode="&#xb5;" 
d="M60 -300v840h240v-420h60v420h240v-600h-60v-60h-240v-180h-240z" />
    <glyph glyph-name="uni03BC" unicode="&#x3bc;" 
d="M60 -300v840h240v-420h60v420h240v-600h-60v-60h-240v-180h-240z" />
    <glyph glyph-name="paragraph" unicode="&#xb6;" horiz-adv-x="600" 
d="M60 660h60v60h540v-840h-480v360h-60v60h-60v360z" />
    <glyph glyph-name="periodcentered" unicode="&#xb7;" horiz-adv-x="240" 
d="M60 420h240v-240h-240v240z" />
    <glyph glyph-name="cedilla" unicode="&#xb8;" horiz-adv-x="360" 
d="M60 -360v180h60v60h60v60h240v-180h-60v-60h-60v-60h-240z" />
    <glyph glyph-name="guillemotright" unicode="&#xbb;" horiz-adv-x="600" 
d="M60 60v240h60v60h-60v240h180v-60h60v60h180v-60h60v-60h60v-60h60v-180h-60v-60h-60v-60h-60v-60h-180v60h-60v-60h-180z" />
    <glyph glyph-name="questiondown" unicode="&#xbf;" 
d="M60 420h60v60h180v240h240v-420h-60v-60h120v-300h-60v-60h-420v60h-60v480zM360 120v120h-60v-120h60z" />
    <glyph glyph-name="Agrave" unicode="&#xc0;" 
d="M300 960v-60h60v-60h60v-120h120v-60h60v-780h-240v240h-60v-240h-240v780h60v120h-60v180h240zM360 360v120h-60v-120h60z" />
    <glyph glyph-name="Aacute" unicode="&#xc1;" 
d="M60 -120v780h60v60h120v120h60v60h60v60h240v-180h-60v-120h60v-780h-240v240h-60v-240h-240zM360 360v120h-60v-120h60z" />
    <glyph glyph-name="Acircumflex" unicode="&#xc2;" 
d="M120 840v60h60v60h300v-60h60v-60h60v-960h-240v240h-60v-240h-240v960h60zM300 360h60v120h-60v-120z" />
    <glyph glyph-name="Atilde" unicode="&#xc3;" 
d="M60 -120v960h60v60h480v-180h-60v-60h60v-780h-240v240h-60v-240h-240zM300 480v-120h60v120h-60z" />
    <glyph glyph-name="Adieresis" unicode="&#xc4;" 
d="M60 960h240v-240h60v240h240v-1080h-240v240h-60v-240h-240v1080zM300 480v-120h60v120h-60z" />
    <glyph glyph-name="Aring" unicode="&#xc5;" 
d="M120 660v60h60v240h300v-240h60v-60h60v-780h-240v240h-60v-240h-240v780h60zM300 360h60v120h-60v-120z" />
    <glyph glyph-name="AE" unicode="&#xc6;" horiz-adv-x="900" 
d="M120 660v60h840v-240h-300v-60h240v-240h-240v-60h300v-240h-600v240h-60v-240h-240v780h60zM300 360h60v120h-60v-120z" />
    <glyph glyph-name="Ccedilla" unicode="&#xc7;" 
d="M60 -60v720h60v60h420v-60h60v-300h-240v120h-60v-360h60v180h240v-360h-60v-60h-60v-120h-60v-60h-60v-60h-240v180h60v60h-60v60h-60z" />
    <glyph glyph-name="Egrave" unicode="&#xc8;" 
d="M180 720v60h-60v180h240v-60h60v-60h60v-120h120v-240h-300v-60h240v-240h-240v-60h300v-240h-540v840h120z" />
    <glyph glyph-name="Eacute" unicode="&#xc9;" 
d="M60 -120v840h120v120h60v60h60v60h240v-180h-60v-60h120v-240h-300v-60h240v-240h-240v-60h300v-240h-540z" />
    <glyph glyph-name="Ecircumflex" unicode="&#xca;" 
d="M120 840v60h60v60h300v-60h60v-60h60v-360h-300v-60h240v-240h-240v-60h300v-240h-540v960h60z" />
    <glyph glyph-name="uni0401" unicode="&#xcb;" 
d="M60 -120v1080h240v-240h60v240h240v-480h-300v-60h240v-240h-240v-60h300v-240h-540z" />
    <glyph glyph-name="uni0401" unicode="&#x401;" 
d="M60 -120v1080h240v-240h60v240h240v-480h-300v-60h240v-240h-240v-60h300v-240h-540z" />
    <glyph glyph-name="Igrave" unicode="&#xcc;" horiz-adv-x="360" 
d="M0 780v180h240v-60h60v-60h60v-120h60v-240h-60v-360h60v-240h-360v240h60v360h-60v300h-60z" />
    <glyph glyph-name="Iacute" unicode="&#xcd;" horiz-adv-x="360" 
d="M60 720h60v120h60v60h60v60h240v-180h-60v-300h-60v-360h60v-240h-360v240h60v360h-60v240z" />
    <glyph glyph-name="Icircumflex" unicode="&#xce;" horiz-adv-x="480" 
d="M120 840v60h60v60h240v-60h60v-60h60v-180h-60v-180h-60v-360h60v-240h-360v240h60v360h-60v180h-60v180h60z" />
    <glyph glyph-name="Iotadieresis" unicode="&#xcf;" horiz-adv-x="480" 
d="M60 960h480v-300h-60v-180h-60v-360h60v-240h-360v240h60v360h-60v180h-60v300z" />
    <glyph glyph-name="Iotadieresis" unicode="&#x407;" horiz-adv-x="480" 
d="M60 960h480v-300h-60v-180h-60v-360h60v-240h-360v240h60v360h-60v180h-60v300z" />
    <glyph glyph-name="Iotadieresis" unicode="&#x3aa;" horiz-adv-x="480" 
d="M60 960h480v-300h-60v-180h-60v-360h60v-240h-360v240h60v360h-60v180h-60v300z" />
    <glyph glyph-name="Eth" unicode="&#xd0;" horiz-adv-x="600" 
d="M120 420v300h480v-60h60v-720h-60v-60h-480v300h-60v240h60zM360 120h60v60h-60v-60zM360 420h60v60h-60v-60z" />
    <glyph glyph-name="Ntilde" unicode="&#xd1;" 
d="M120 840v60h480v-180h-60v-60h60v-780h-240v600h-60v-600h-240v960h60z" />
    <glyph glyph-name="Ograve" unicode="&#xd2;" 
d="M60 -60v720h60v60h60v60h-60v180h240v-60h60v-60h60v-120h60v-60h60v-720h-60v-60h-420v60h-60zM360 120v360h-60v-360h60z" />
    <glyph glyph-name="Oacute" unicode="&#xd3;" 
d="M120 660v60h60v120h60v60h60v60h240v-180h-60v-60h60v-60h60v-720h-60v-60h-420v60h-60v720h60zM360 120v360h-60v-360h60z" />
    <glyph glyph-name="Ocircumflex" unicode="&#xd4;" 
d="M120 840v60h60v60h300v-60h60v-60h60v-900h-60v-60h-420v60h-60v900h60zM300 480v-360h60v360h-60z" />
    <glyph glyph-name="Otilde" unicode="&#xd5;" 
d="M120 840v60h480v-180h-60v-60h60v-720h-60v-60h-420v60h-60v900h60zM300 120h60v360h-60v-360z" />
    <glyph glyph-name="Odieresis" unicode="&#xd6;" 
d="M60 -60v1020h240v-240h60v240h240v-1020h-60v-60h-420v60h-60zM360 120v360h-60v-360h60z" />
    <glyph glyph-name="multiply" unicode="&#xd7;" 
d="M60 360v240h240v-60h60v60h240v-240h-60v-60h60v-240h-240v60h-60v-60h-240v240h60v60h-60z" />
    <glyph glyph-name="Oslash" unicode="&#xd8;" horiz-adv-x="660" 
d="M120 60v600h60v60h300v60h240v-240h-60v-600h-60v-60h-300v-60h-240v240h60z" />
    <glyph glyph-name="Ugrave" unicode="&#xd9;" 
d="M120 720v60h-60v180h240v-60h60v-60h60v-120h180v-780h-60v-60h-420v60h-60v780h60zM360 120v540h-60v-540h60z" />
    <glyph glyph-name="Uacute" unicode="&#xda;" 
d="M60 -60v780h180v120h60v60h60v60h240v-180h-60v-60h60v-780h-60v-60h-420v60h-60zM360 120v540h-60v-540h60z" />
    <glyph glyph-name="Ucircumflex" unicode="&#xdb;" 
d="M60 840h60v60h60v60h300v-60h60v-60h60v-900h-60v-60h-420v60h-60v900zM360 120v600h-60v-600h60z" />
    <glyph glyph-name="Udieresis" unicode="&#xdc;" 
d="M60 -60v1020h240v-840h60v840h240v-1020h-60v-60h-420v60h-60z" />
    <glyph glyph-name="Yacute" unicode="&#xdd;" horiz-adv-x="600" 
d="M60 300v420h180v120h60v60h60v60h240v-180h-60v-60h120v-420h-60v-120h-60v-60h-60v-240h-240v240h-60v60h-60v120h-60zM420 480v180h-120v-180h120z" />
    <glyph glyph-name="Thorn" unicode="&#xde;" 
d="M60 780h240v-180h240v-60h60v-420h-60v-60h-240v-180h-240v900zM360 300v60h-60v-60h60z" />
    <glyph glyph-name="germandbls" unicode="&#xdf;" horiz-adv-x="600" 
d="M60 -120v780h60v60h480v-60h60v-720h-60v-60h-540zM300 180v-60h120v60h-120zM300 480v-60h120v60h-120z" />
    <glyph glyph-name="agrave" unicode="&#xe0;" 
d="M60 -60v540h60v60h60v60h-60v180h240v-60h60v-60h60v-120h60v-60h60v-600h-480v60h-60z" />
    <glyph glyph-name="aacute" unicode="&#xe1;" 
d="M60 -60v540h60v60h60v120h60v60h60v60h240v-180h-60v-60h60v-60h60v-600h-480v60h-60z" />
    <glyph glyph-name="acircumflex" unicode="&#xe2;" 
d="M60 -60v720h60v60h60v60h300v-60h60v-60h60v-780h-480v60h-60z" />
    <glyph glyph-name="atilde" unicode="&#xe3;" 
d="M60 660h60v60h480v-180h-60v-60h60v-600h-480v60h-60v720z" />
    <glyph glyph-name="adieresis" unicode="&#xe4;" 
d="M300 780v-240h60v240h240v-900h-480v60h-60v840h240z" />
    <glyph glyph-name="aring" unicode="&#xe5;" 
d="M60 -60v540h60v60h60v240h300v-240h60v-60h60v-600h-480v60h-60z" />
    <glyph glyph-name="ae" unicode="&#xe6;" horiz-adv-x="840" 
d="M120 480v60h720v-60h60v-540h-60v-60h-720v60h-60v540h60z" />
    <glyph glyph-name="ccedilla" unicode="&#xe7;" 
d="M60 -180h60v120h-60v540h60v60h420v-60h60v-240h-240v60h-60v-180h60v60h240v-240h-60v-60h-120v-120h-60v-60h-60v-60h-240v180z" />
    <glyph glyph-name="egrave" unicode="&#xe8;" 
d="M120 480v60h60v60h-60v180h240v-60h60v-60h60v-120h60v-60h60v-540h-60v-60h-420v60h-60v540h60z" />
    <glyph glyph-name="eacute" unicode="&#xe9;" 
d="M120 480v60h60v120h60v60h60v60h240v-180h-60v-60h60v-60h60v-540h-60v-60h-420v60h-60v540h60z" />
    <glyph glyph-name="ecircumflex" unicode="&#xea;" 
d="M60 -60v720h60v60h60v60h300v-60h60v-60h60v-720h-60v-60h-420v60h-60z" />
    <glyph glyph-name="uni0451" unicode="&#xeb;" 
d="M60 -60v840h240v-240h60v240h240v-840h-60v-60h-420v60h-60z" />
    <glyph glyph-name="uni0451" unicode="&#x451;" 
d="M60 -60v840h240v-240h60v240h240v-840h-60v-60h-420v60h-60z" />
    <glyph glyph-name="igrave" unicode="&#xec;" horiz-adv-x="360" 
d="M300 780v-60h60v-60h60v-780h-240v660h-60v60h-60v180h240z" />
    <glyph glyph-name="iacute" unicode="&#xed;" horiz-adv-x="360" 
d="M120 660v60h60v60h240v-180h-60v-60h-60v-660h-240v780h60z" />
    <glyph glyph-name="icircumflex" unicode="&#xee;" horiz-adv-x="480" 
d="M60 480v180h60v60h60v60h240v-60h60v-60h60v-180h-120v-600h-240v600h-120z" />
    <glyph glyph-name="idieresis" unicode="&#xef;" horiz-adv-x="480" 
d="M60 780h480v-300h-120v-600h-240v600h-120v300z" />
    <glyph glyph-name="idieresis" unicode="&#x457;" horiz-adv-x="480" 
d="M60 780h480v-300h-120v-600h-240v600h-120v300z" />
    <glyph glyph-name="eth" unicode="&#xf0;" horiz-adv-x="600" 
d="M60 -60v480h60v60h180v180h60v60h240v-60h60v-240h-60v-540h-480v60h-60zM300 240v-120h60v120h-60z" />
    <glyph glyph-name="ntilde" unicode="&#xf1;" 
d="M120 660v60h480v-180h-60v-60h60v-600h-240v420h-60v-420h-240v780h60z" />
    <glyph glyph-name="ograve" unicode="&#xf2;" 
d="M60 -60v540h60v60h60v60h-60v180h240v-60h60v-60h60v-120h60v-60h60v-540h-60v-60h-420v60h-60zM300 300v-180h60v180h-60z" />
    <glyph glyph-name="oacute" unicode="&#xf3;" 
d="M60 480h60v60h60v120h60v60h60v60h240v-180h-60v-60h60v-60h60v-540h-60v-60h-420v60h-60v540zM360 120v180h-60v-180h60z" />
    <glyph glyph-name="ocircumflex" unicode="&#xf4;" 
d="M120 660v60h60v60h300v-60h60v-60h60v-720h-60v-60h-420v60h-60v720h60zM300 120h60v180h-60v-180z" />
    <glyph glyph-name="otilde" unicode="&#xf5;" 
d="M120 660v60h480v-180h-60v-60h60v-540h-60v-60h-420v60h-60v720h60zM360 120v180h-60v-180h60z" />
    <glyph glyph-name="odieresis" unicode="&#xf6;" 
d="M300 780v-240h60v240h240v-840h-60v-60h-420v60h-60v840h240zM360 120v180h-60v-180h60z" />
    <glyph glyph-name="divide" unicode="&#xf7;" horiz-adv-x="600" 
d="M60 240v240h180v180h240v-180h180v-240h-180v-180h-240v180h-180z" />
    <glyph glyph-name="oslash" unicode="&#xf8;" horiz-adv-x="720" 
d="M120 60v420h60v60h360v60h240v-240h-60v-420h-60v-60h-360v-60h-240v240h60z" />
    <glyph glyph-name="ugrave" unicode="&#xf9;" 
d="M60 540h120v60h-60v180h240v-60h60v-60h60v-120h120v-600h-60v-60h-420v60h-60v600zM360 120v360h-60v-360h60z" />
    <glyph glyph-name="uacute" unicode="&#xfa;" 
d="M60 -60v600h120v120h60v60h60v60h240v-180h-60v-60h120v-600h-60v-60h-420v60h-60zM360 120v360h-60v-360h60z" />
    <glyph glyph-name="ucircumflex" unicode="&#xfb;" 
d="M60 660h60v60h60v60h300v-60h60v-60h60v-720h-60v-60h-420v60h-60v720zM360 120v420h-60v-420h60z" />
    <glyph glyph-name="udieresis" unicode="&#xfc;" 
d="M60 -60v840h240v-660h60v660h240v-840h-60v-60h-420v60h-60z" />
    <glyph glyph-name="yacute" unicode="&#xfd;" 
d="M60 540h120v120h60v60h60v60h240v-180h-60v-60h120v-840h-60v-60h-420v60h-60v840zM300 480v-360h60v360h-60z" />
    <glyph glyph-name="thorn" unicode="&#xfe;" 
d="M60 780h240v-120h240v-60h60v-540h-60v-60h-240v-120h-240v900zM360 240v180h-60v-180h60z" />
    <glyph glyph-name="ydieresis" unicode="&#xff;" 
d="M60 -300v1080h240v-660h60v660h240v-1080h-60v-60h-420v60h-60z" />
    <glyph glyph-name="Amacron" unicode="&#x100;" 
d="M120 660v240h420v-240h60v-780h-240v240h-60v-240h-240v780h60zM300 480v-120h60v120h-60z" />
    <glyph glyph-name="amacron" unicode="&#x101;" 
d="M120 480v240h420v-240h60v-600h-480v60h-60v540h60z" />
    <glyph glyph-name="Abreve" unicode="&#x102;" 
d="M120 660v300h420v-300h60v-780h-240v240h-60v-240h-240v780h60zM300 480v-120h60v120h-60z" />
    <glyph glyph-name="abreve" unicode="&#x103;" 
d="M60 -60v540h60v300h420v-300h60v-600h-480v60h-60z" />
    <glyph glyph-name="Aogonek" unicode="&#x104;" 
d="M120 660v60h420v-60h60v-780h-120v-60h60v-180h-240v60h-60v60h-60v120h-120v780h60zM300 120v-180h60v180h-60zM300 480v-120h60v120h-60z" />
    <glyph glyph-name="aogonek" unicode="&#x105;" 
d="M60 -60v540h60v60h420v-60h60v-600h-120v-60h60v-180h-240v60h-60v60h-60v120h-60v60h-60z" />
    <glyph glyph-name="Cacute" unicode="&#x106;" 
d="M60 -60v720h60v60h60v120h60v60h60v60h240v-180h-60v-60h60v-60h60v-300h-240v120h-60v-360h60v180h240v-360h-60v-60h-420v60h-60z" />
    <glyph glyph-name="cacute" unicode="&#x107;" 
d="M120 480v60h60v120h60v60h60v60h240v-180h-60v-60h60v-60h60v-240h-240v60h-60v-180h60v60h240v-240h-60v-60h-420v60h-60v540h60z" />
    <glyph glyph-name="Ccircumflex" unicode="&#x108;" 
d="M120 840v60h60v60h300v-60h60v-60h60v-480h-240v120h-60v-360h60v180h240v-360h-60v-60h-420v60h-60v900h60z" />
    <glyph glyph-name="ccircumflex" unicode="&#x109;" 
d="M120 660v60h60v60h300v-60h60v-60h60v-420h-240v60h-60v-180h60v60h240v-240h-60v-60h-420v60h-60v720h60z" />
    <glyph glyph-name="Cdotaccent" unicode="&#x10a;" 
d="M60 -60v720h60v60h60v180h240v-180h120v-60h60v-300h-240v120h-60v-360h60v180h240v-360h-60v-60h-420v60h-60z" />
    <glyph glyph-name="cdotaccent" unicode="&#x10b;" 
d="M120 480v60h60v180h240v-180h120v-60h60v-240h-240v60h-60v-180h60v60h240v-240h-60v-60h-420v60h-60v540h60z" />
    <glyph glyph-name="Ccaron" unicode="&#x10c;" 
d="M120 660v120h-60v180h240v-60h60v60h240v-180h-60v-120h60v-300h-240v120h-60v-360h60v180h240v-360h-60v-60h-420v60h-60v720h60z" />
    <glyph glyph-name="ccaron" unicode="&#x10d;" 
d="M120 480v120h-60v180h240v-60h60v60h240v-180h-60v-120h60v-240h-240v60h-60v-180h60v60h240v-240h-60v-60h-420v60h-60v540h60z" />
    <glyph glyph-name="Dcaron" unicode="&#x10e;" 
d="M300 960v-60h60v60h240v-180h-60v-120h60v-720h-60v-60h-480v840h60v60h-60v180h240zM360 120v360h-60v-360h60z" />
    <glyph glyph-name="dcaron" unicode="&#x10f;" horiz-adv-x="720" 
d="M60 -60v480h60v60h240v240h180v60h240v-360h-180v-540h-480v60h-60zM300 240v-120h60v120h-60z" />
    <glyph glyph-name="Dcroat" unicode="&#x110;" horiz-adv-x="600" 
d="M60 420h60v300h480v-60h60v-720h-60v-60h-480v300h-60v240zM360 120h60v60h-60v-60zM420 420v60h-60v-60h60z" />
    <glyph glyph-name="dcroat" unicode="&#x111;" horiz-adv-x="600" 
d="M60 -60v480h60v60h180v180h60v60h240v-60h60v-240h-60v-540h-480v60h-60zM300 240v-120h60v120h-60z" />
    <glyph glyph-name="Emacron" unicode="&#x112;" 
d="M60 -120v840h60v180h420v-180h60v-240h-300v-60h240v-240h-240v-60h300v-240h-540z" />
    <glyph glyph-name="emacron" unicode="&#x113;" 
d="M120 480v240h420v-240h60v-540h-60v-60h-420v60h-60v540h60z" />
    <glyph glyph-name="Ebreve" unicode="&#x114;" 
d="M60 -120v840h60v240h420v-240h60v-240h-300v-60h240v-240h-240v-60h300v-240h-540z" />
    <glyph glyph-name="ebreve" unicode="&#x115;" 
d="M60 -60v540h60v300h420v-300h60v-540h-60v-60h-420v60h-60z" />
    <glyph glyph-name="Edotaccent" unicode="&#x116;" 
d="M180 720v180h240v-180h180v-240h-300v-60h240v-240h-240v-60h300v-240h-540v840h120z" />
    <glyph glyph-name="edotaccent" unicode="&#x117;" 
d="M60 -60v540h60v60h60v180h240v-180h120v-60h60v-540h-60v-60h-420v60h-60z" />
    <glyph glyph-name="Eogonek" unicode="&#x118;" 
d="M60 -120v840h540v-240h-300v-60h240v-240h-240v-60h300v-240h-120v-60h60v-180h-240v60h-60v60h-60v120h-120z" />
    <glyph glyph-name="eogonek" unicode="&#x119;" 
d="M60 -60v540h60v60h420v-60h60v-540h-60v-60h-60v-60h60v-180h-240v60h-60v60h-60v120h-60v60h-60z" />
    <glyph glyph-name="Ecaron" unicode="&#x11a;" 
d="M60 780v180h240v-60h60v60h240v-180h-60v-60h60v-240h-300v-60h240v-240h-240v-60h300v-240h-540v840h60v60h-60z" />
    <glyph glyph-name="ecaron" unicode="&#x11b;" 
d="M60 480h60v120h-60v180h240v-60h60v60h240v-180h-60v-120h60v-540h-60v-60h-420v60h-60v540z" />
    <glyph glyph-name="Gcircumflex" unicode="&#x11c;" 
d="M60 840h60v60h60v60h300v-60h60v-60h60v-900h-60v-60h-420v60h-60v900zM300 360h60v120h-60v-120z" />
    <glyph glyph-name="gcircumflex" unicode="&#x11d;" 
d="M120 660v60h60v60h300v-60h60v-60h60v-960h-60v-60h-420v60h-60v960h60zM360 120v180h-60v-180h60z" />
    <glyph glyph-name="Gbreve" unicode="&#x11e;" 
d="M60 660h60v300h420v-300h60v-720h-60v-60h-420v60h-60v720zM300 360h60v120h-60v-120z" />
    <glyph glyph-name="gbreve" unicode="&#x11f;" 
d="M120 480v300h420v-300h60v-780h-60v-60h-420v60h-60v780h60zM360 120v180h-60v-180h60z" />
    <glyph glyph-name="Gdotaccent" unicode="&#x120;" 
d="M60 660h60v60h60v180h240v-180h120v-60h60v-720h-60v-60h-420v60h-60v720zM300 360h60v120h-60v-120z" />
    <glyph glyph-name="gdotaccent" unicode="&#x121;" 
d="M120 480v60h120v180h240v-180h60v-60h60v-780h-60v-60h-420v60h-60v780h60zM360 120v180h-60v-180h60z" />
    <glyph glyph-name="uni0122" unicode="&#x122;" 
d="M120 660v60h420v-60h60v-720h-60v-60h-60v-120h-60v-60h-60v-60h-240v180h60v60h-60v60h-60v720h60zM300 480v-120h60v120h-60z" />
    <glyph glyph-name="uni0123" unicode="&#x123;" 
d="M60 480h60v60h60v120h60v60h60v60h240v-180h-60v-60h60v-60h60v-780h-60v-60h-420v60h-60v780zM300 300v-180h60v180h-60z" />
    <glyph glyph-name="Hcircumflex" unicode="&#x124;" 
d="M60 840h60v60h60v60h300v-60h60v-60h60v-960h-240v240h-60v-240h-240v960zM300 360h60v360h-60v-360z" />
    <glyph glyph-name="hcircumflex" unicode="&#x125;" 
d="M60 -120v960h60v60h60v60h300v-60h60v-60h60v-180h-240v60h-60v-180h240v-60h60v-600h-240v420h-60v-420h-240z" />
    <glyph glyph-name="Hbar" unicode="&#x126;" horiz-adv-x="660" 
d="M120 600v120h240v-120h60v120h240v-120h60v-240h-60v-480h-240v240h-60v-240h-240v480h-60v240h60z" />
    <glyph glyph-name="hbar" unicode="&#x127;" horiz-adv-x="600" 
d="M120 420h-60v240h60v60h240v-60h60v-180h180v-60h60v-540h-240v360h-60v-360h-240v540z" />
    <glyph glyph-name="Itilde" unicode="&#x128;" horiz-adv-x="360" 
d="M60 840v60h480v-180h-60v-60h-60v-180h-60v-360h60v-240h-360v240h60v360h-60v180h-60v180h60z" />
    <glyph glyph-name="itilde" unicode="&#x129;" horiz-adv-x="240" 
d="M0 660v60h420v-180h-60v-60h-60v-600h-240v600h-120v180h60z" />
    <glyph glyph-name="Imacron" unicode="&#x12a;" horiz-adv-x="360" 
d="M0 660v240h480v-240h-60v-180h-60v-360h60v-240h-360v240h60v360h-60v180h-60z" />
    <glyph glyph-name="imacron" unicode="&#x12b;" horiz-adv-x="240" 
d="M360 720v-240h-60v-600h-240v600h-60v240h360z" />
    <glyph glyph-name="Ibreve" unicode="&#x12c;" horiz-adv-x="360" 
d="M0 960h480v-240h-60v-240h-60v-360h60v-240h-360v240h60v360h-60v240h-60v240z" />
    <glyph glyph-name="ibreve" unicode="&#x12d;" horiz-adv-x="240" 
d="M-60 540v240h480v-240h-60v-60h-60v-600h-240v600h-60v60h-60z" />
    <glyph glyph-name="Iogonek" unicode="&#x12e;" horiz-adv-x="360" 
d="M60 720h360v-240h-60v-360h60v-300h60v-180h-240v60h-60v60h-60v120h-60v240h60v360h-60v240z" />
    <glyph glyph-name="iogonek" unicode="&#x12f;" horiz-adv-x="240" 
d="M300 720v-840h60v-60h60v-180h-240v60h-60v60h-60v960h240z" />
    <glyph glyph-name="Idotaccent" unicode="&#x130;" horiz-adv-x="360" 
d="M120 720v180h240v-180h60v-240h-60v-360h60v-240h-360v240h60v360h-60v240h60z" />
    <glyph glyph-name="dotlessi" unicode="&#x131;" horiz-adv-x="240" 
d="M60 540h240v-660h-240v660z" />
    <glyph glyph-name="IJ" unicode="&#x132;" horiz-adv-x="900" 
d="M60 120h60v360h-60v240h360v-240h-60v-180h240v-180h60v360h-60v240h360v-240h-60v-540h-60v-60h-780v240z" />
    <glyph glyph-name="ij" unicode="&#x133;" horiz-adv-x="420" 
d="M60 720h420v-1020h-60v-60h-300v240h-60v840z" />
    <glyph glyph-name="Jcircumflex" unicode="&#x134;" horiz-adv-x="600" 
d="M300 660h-240v180h60v60h60v60h300v-60h60v-60h60v-120h60v-240h-60v-540h-60v-60h-420v60h-60v360h240v-180h60v360h-60v180z" />
    <glyph glyph-name="jcircumflex" unicode="&#x135;" horiz-adv-x="480" 
d="M60 480v180h60v60h60v60h240v-60h60v-60h60v-180h-120v-780h-60v-60h-300v240h120v600h-120z" />
    <glyph glyph-name="uni0136" unicode="&#x136;" horiz-adv-x="660" 
d="M60 -120v840h240v-180h60v60h60v60h60v60h240v-240h-60v-60h-60v-60h-60v-120h60v-60h60v-60h60v-240h-180v-120h-60v-60h-60v-60h-240v180h60v60h-180zM420 -60v60h-60v60h-60v-120h120z" />
    <glyph glyph-name="uni0137" unicode="&#x137;" 
d="M60 720h240v-240h60v60h240v-240h-60v-60h-60v-60h60v-60h60v-240h-120v-120h-60v-60h-60v-60h-240v180h60v60h-120v840z" />
    <glyph glyph-name="Lacute" unicode="&#x139;" 
d="M120 840v60h60v60h240v-180h-60v-60h-60v-600h300v-240h-540v960h60z" />
    <glyph glyph-name="lacute" unicode="&#x13a;" horiz-adv-x="360" 
d="M120 840v60h60v60h240v-180h-60v-60h-60v-840h-240v960h60z" />
    <glyph glyph-name="uni013B" unicode="&#x13b;" 
d="M60 -120v840h240v-600h300v-240h-120v-120h-60v-60h-60v-60h-240v180h60v60h-120z" />
    <glyph glyph-name="uni013C" unicode="&#x13c;" horiz-adv-x="240" 
d="M0 -180v60h60v840h240v-960h-60v-60h-60v-60h-240v180h60z" />
    <glyph glyph-name="Lcaron" unicode="&#x13d;" 
d="M240 720v60h240v-360h-180v-300h300v-240h-540v840h180z" />
    <glyph glyph-name="lcaron" unicode="&#x13e;" horiz-adv-x="420" 
d="M240 720v60h240v-360h-180v-540h-240v840h180z" />
    <glyph glyph-name="Ldot" unicode="&#x13f;" 
d="M60 720h240v-60h180v-240h-180v-300h300v-240h-540v840z" />
    <glyph glyph-name="ldot" unicode="&#x140;" horiz-adv-x="480" 
d="M60 720h240v-60h180v-240h-180v-540h-240v840z" />
    <glyph glyph-name="Lslash" unicode="&#x141;" horiz-adv-x="660" 
d="M60 300v240h120v180h240v-180h120v-240h-120v-180h300v-240h-540v420h-120z" />
    <glyph glyph-name="lslash" unicode="&#x142;" horiz-adv-x="480" 
d="M180 540v180h240v-180h120v-240h-120v-420h-240v420h-120v240h120z" />
    <glyph glyph-name="Nacute" unicode="&#x143;" 
d="M180 720v120h60v60h60v60h240v-180h-60v-60h60v-60h60v-780h-240v600h-60v-600h-240v840h120z" />
    <glyph glyph-name="nacute" unicode="&#x144;" 
d="M60 -120v660h120v120h60v60h60v60h240v-180h-60v-60h60v-60h60v-600h-240v420h-60v-420h-240z" />
    <glyph glyph-name="uni0145" unicode="&#x145;" 
d="M60 -120v840h480v-60h60v-780h-120v-120h-60v-60h-60v-60h-240v180h60v60h-120zM360 -60v540h-60v-540h60z" />
    <glyph glyph-name="uni0146" unicode="&#x146;" 
d="M60 -120v660h480v-60h60v-600h-120v-120h-60v-60h-60v-60h-240v180h60v60h-120zM360 -60v360h-60v-360h60z" />
    <glyph glyph-name="Ncaron" unicode="&#x147;" 
d="M300 960v-60h60v60h240v-180h-60v-120h60v-780h-240v600h-60v-600h-240v840h60v60h-60v180h240z" />
    <glyph glyph-name="ncaron" unicode="&#x148;" 
d="M300 780v-60h60v60h240v-180h-60v-120h60v-600h-240v420h-60v-420h-240v660h60v60h-60v180h240z" />
    <glyph glyph-name="Eng" unicode="&#x14a;" 
d="M540 720v-60h60v-900h-60v-60h-240v180h-240v840h480zM300 480v-540h60v540h-60z" />
    <glyph glyph-name="eng" unicode="&#x14b;" 
d="M540 540v-60h60v-720h-60v-60h-240v180h-240v660h480zM300 300v-360h60v360h-60z" />
    <glyph glyph-name="Omacron" unicode="&#x14c;" 
d="M120 660v240h420v-240h60v-720h-60v-60h-420v60h-60v720h60zM300 480v-360h60v360h-60z" />
    <glyph glyph-name="omacron" unicode="&#x14d;" 
d="M120 480v240h420v-240h60v-540h-60v-60h-420v60h-60v540h60zM360 120v180h-60v-180h60z" />
    <glyph glyph-name="Obreve" unicode="&#x14e;" 
d="M120 660v300h420v-300h60v-720h-60v-60h-420v60h-60v720h60zM300 120h60v360h-60v-360z" />
    <glyph glyph-name="obreve" unicode="&#x14f;" 
d="M120 480v300h420v-300h60v-540h-60v-60h-420v60h-60v540h60zM360 120v180h-60v-180h60z" />
    <glyph glyph-name="Ohungarumlaut" unicode="&#x150;" 
d="M120 840v60h60v60h480v-180h-60v-60h-60v-60h60v-720h-60v-60h-420v60h-60v900h60zM300 120h60v360h-60v-360z" />
    <glyph glyph-name="ohungarumlaut" unicode="&#x151;" 
d="M120 660v60h60v60h480v-180h-60v-60h-60v-60h60v-540h-60v-60h-420v60h-60v720h60zM360 120v180h-60v-180h60z" />
    <glyph glyph-name="OE" unicode="&#x152;" horiz-adv-x="840" 
d="M60 660h60v60h780v-240h-300v-60h240v-240h-240v-60h300v-240h-780v60h-60v720zM360 120v360h-60v-360h60z" />
    <glyph glyph-name="oe" unicode="&#x153;" horiz-adv-x="840" 
d="M120 480v60h720v-60h60v-540h-60v-60h-720v60h-60v540h60zM360 120v180h-60v-180h60z" />
    <glyph glyph-name="Racute" unicode="&#x154;" 
d="M180 720v120h60v60h60v60h240v-180h-60v-60h60v-60h60v-780h-240v240h-60v-240h-240v840h120zM300 480v-120h60v120h-60z" />
    <glyph glyph-name="racute" unicode="&#x155;" 
d="M60 -120v660h120v120h60v60h60v60h240v-180h-60v-60h60v-60h60v-240h-240v60h-60v-420h-240z" />
    <glyph glyph-name="uni0156" unicode="&#x156;" 
d="M60 720h480v-60h60v-780h-120v-120h-60v-60h-60v-60h-240v180h60v60h-120v840zM360 -60v180h-60v-180h60zM300 480v-120h60v120h-60z" />
    <glyph glyph-name="uni0157" unicode="&#x157;" 
d="M0 -180v60h60v660h480v-60h60v-240h-240v60h-60v-540h-60v-60h-60v-60h-240v180h60z" />
    <glyph glyph-name="Rcaron" unicode="&#x158;" 
d="M60 -120v840h60v60h-60v180h240v-60h60v60h240v-180h-60v-120h60v-780h-240v240h-60v-240h-240zM360 360v120h-60v-120h60z" />
    <glyph glyph-name="rcaron" unicode="&#x159;" 
d="M60 600v180h240v-60h60v60h240v-180h-60v-120h60v-240h-240v60h-60v-420h-240v660h60v60h-60z" />
    <glyph glyph-name="Sacute" unicode="&#x15a;" 
d="M60 240v420h60v60h60v120h60v60h60v60h240v-180h-60v-60h60v-60h60v-240h-60v-60h60v-420h-60v-60h-420v60h-60v240h60v60h-60zM300 480v-60h60v60h-60zM360 180h-60v-60h60v60z" />
    <glyph glyph-name="sacute" unicode="&#x15b;" 
d="M60 -60v540h60v60h60v120h60v60h60v60h240v-180h-60v-60h60v-60h60v-540h-60v-60h-420v60h-60z" />
    <glyph glyph-name="Scircumflex" unicode="&#x15c;" 
d="M120 180v60h-60v600h60v60h60v60h300v-60h60v-60h60v-420h-60v-60h60v-420h-60v-60h-420v60h-60v240h60zM360 180h-60v-60h60v60zM300 480v-60h60v60h-60z" />
    <glyph glyph-name="scircumflex" unicode="&#x15d;" 
d="M60 -60v720h60v60h60v60h300v-60h60v-60h60v-720h-60v-60h-420v60h-60z" />
    <glyph glyph-name="Scedilla" unicode="&#x15e;" 
d="M60 -60v240h60v60h-60v420h60v60h420v-60h60v-240h-60v-60h60v-420h-60v-60h-60v-120h-60v-60h-60v-60h-240v180h60v60h-60v60h-60zM300 420h60v60h-60v-60zM360 180h-60v-60h60v60z" />
    <glyph glyph-name="Scedilla" unicode="&#x218;" 
d="M60 -60v240h60v60h-60v420h60v60h420v-60h60v-240h-60v-60h60v-420h-60v-60h-60v-120h-60v-60h-60v-60h-240v180h60v60h-60v60h-60zM300 420h60v60h-60v-60zM360 180h-60v-60h60v60z" />
    <glyph glyph-name="scedilla" unicode="&#x15f;" 
d="M60 -60v540h60v60h420v-60h60v-540h-60v-60h-60v-120h-60v-60h-60v-60h-240v180h60v60h-60v60h-60z" />
    <glyph glyph-name="scedilla" unicode="&#x219;" 
d="M60 -60v540h60v60h420v-60h60v-540h-60v-60h-60v-120h-60v-60h-60v-60h-240v180h60v60h-60v60h-60z" />
    <glyph glyph-name="Scaron" unicode="&#x160;" 
d="M60 960h240v-60h60v60h240v-180h-60v-120h60v-240h-60v-60h60v-420h-60v-60h-420v60h-60v240h60v60h-60v420h60v120h-60v180zM300 420h60v60h-60v-60zM360 120v60h-60v-60h60z" />
    <glyph glyph-name="scaron" unicode="&#x161;" 
d="M60 780h240v-60h60v60h240v-180h-60v-120h60v-540h-60v-60h-420v60h-60v540h60v120h-60v180z" />
    <glyph glyph-name="uni021A" unicode="&#x162;" horiz-adv-x="480" 
d="M60 -180h60v60h60v600h-120v240h480v-240h-120v-720h-60v-60h-60v-60h-240v180z" />
    <glyph glyph-name="uni021A" unicode="&#x21a;" horiz-adv-x="480" 
d="M60 -180h60v60h60v600h-120v240h480v-240h-120v-720h-60v-60h-60v-60h-240v180z" />
    <glyph glyph-name="uni021B" unicode="&#x163;" horiz-adv-x="420" 
d="M120 -180v60h60v60h-60v360h-60v240h60v180h240v-180h60v-240h-60v-180h120v-180h-60v-180h-60v-60h-60v-60h-240v180h60z" />
    <glyph glyph-name="uni021B" unicode="&#x21b;" horiz-adv-x="420" 
d="M120 -180v60h60v60h-60v360h-60v240h60v180h240v-180h60v-240h-60v-180h120v-180h-60v-180h-60v-60h-60v-60h-240v180h60z" />
    <glyph glyph-name="Tcaron" unicode="&#x164;" horiz-adv-x="480" 
d="M120 720v60h-60v180h480v-180h-60v-60h60v-240h-120v-600h-240v600h-120v240h60z" />
    <glyph glyph-name="tcaron" unicode="&#x165;" 
d="M120 540v180h240v60h240v-360h-180v-120h-60v-180h120v-180h-60v-60h-240v60h-60v360h-60v240h60z" />
    <glyph glyph-name="Tbar" unicode="&#x166;" horiz-adv-x="480" 
d="M60 480v240h480v-240h-120v-60h60v-240h-60v-300h-240v300h-60v240h60v60h-120z" />
    <glyph glyph-name="tbar" unicode="&#x167;" horiz-adv-x="420" 
d="M120 540v180h240v-180h60v-420h60v-180h-60v-60h-240v60h-60v180h-60v420h60z" />
    <glyph glyph-name="Utilde" unicode="&#x168;" 
d="M60 -60v900h60v60h480v-960h-60v-60h-420v60h-60zM360 120v540h-60v-540h60z" />
    <glyph glyph-name="utilde" unicode="&#x169;" 
d="M60 -60v720h60v60h480v-780h-60v-60h-420v60h-60zM360 120v360h-60v-360h60z" />
    <glyph glyph-name="Umacron" unicode="&#x16a;" 
d="M60 720h60v180h420v-180h60v-780h-60v-60h-420v60h-60v780zM360 120v540h-60v-540h60z" />
    <glyph glyph-name="umacron" unicode="&#x16b;" 
d="M60 540h60v180h420v-180h60v-600h-60v-60h-420v60h-60v600zM360 120v360h-60v-360h60z" />
    <glyph glyph-name="Ubreve" unicode="&#x16c;" 
d="M60 720h60v240h420v-240h60v-780h-60v-60h-420v60h-60v780zM360 120v540h-60v-540h60z" />
    <glyph glyph-name="ubreve" unicode="&#x16d;" 
d="M120 540v240h420v-240h60v-600h-60v-60h-420v60h-60v600h60zM360 120v360h-60v-360h60z" />
    <glyph glyph-name="Uring" unicode="&#x16e;" 
d="M180 720v240h300v-240h120v-780h-60v-60h-420v60h-60v780h120zM300 120h60v540h-60v-540z" />
    <glyph glyph-name="uring" unicode="&#x16f;" 
d="M180 540v240h300v-240h120v-600h-60v-60h-420v60h-60v600h120zM300 120h60v360h-60v-360z" />
    <glyph glyph-name="Uhungarumlaut" unicode="&#x170;" 
d="M60 840h60v60h60v60h480v-180h-60v-840h-60v-60h-420v60h-60v900zM360 120v540h-60v-540h60z" />
    <glyph glyph-name="uhungarumlaut" unicode="&#x171;" 
d="M60 660h60v60h60v60h480v-180h-60v-660h-60v-60h-420v60h-60v720zM360 120v360h-60v-360h60z" />
    <glyph glyph-name="Uogonek" unicode="&#x172;" 
d="M60 720h240v-600h60v600h240v-780h-60v-60h-60v-60h60v-180h-240v60h-60v60h-60v120h-60v60h-60v780z" />
    <glyph glyph-name="uogonek" unicode="&#x173;" 
d="M60 -60v600h240v-420h60v420h240v-600h-60v-60h-60v-60h60v-180h-240v60h-60v60h-60v120h-60v60h-60z" />
    <glyph glyph-name="Wcircumflex" unicode="&#x174;" horiz-adv-x="840" 
d="M60 180v540h180v120h60v60h60v60h240v-60h60v-60h60v-120h180v-540h-60v-120h-60v-120h-60v-60h-180v60h-120v-60h-180v60h-60v120h-60v120h-60zM600 660v-300h60v300h-60zM360 360v300h-60v-300h60z" />
    <glyph glyph-name="wcircumflex" unicode="&#x175;" horiz-adv-x="840" 
d="M60 180v360h180v120h60v60h60v60h240v-60h60v-60h60v-120h180v-360h-60v-120h-60v-120h-60v-60h-180v60h-120v-60h-180v60h-60v120h-60v120h-60zM660 300v180h-60v-180h60zM360 300v180h-60v-180h60z" />
    <glyph glyph-name="Ycircumflex" unicode="&#x176;" horiz-adv-x="600" 
d="M120 720v120h60v60h60v60h240v-60h60v-60h60v-120h60v-420h-60v-120h-60v-60h-60v-240h-240v240h-60v60h-60v120h-60v420h60zM300 660v-180h120v180h-120z" />
    <glyph glyph-name="ycircumflex" unicode="&#x177;" 
d="M60 660h60v60h60v60h300v-60h60v-60h60v-960h-60v-60h-420v60h-60v960zM360 120v420h-60v-420h60z" />
    <glyph glyph-name="Ydieresis" unicode="&#x178;" horiz-adv-x="600" 
d="M60 960h240v-480h120v480h240v-660h-60v-120h-60v-60h-60v-240h-240v240h-60v60h-60v120h-60v660z" />
    <glyph glyph-name="Ydieresis" unicode="&#x3ab;" horiz-adv-x="600" 
d="M60 960h240v-480h120v480h240v-660h-60v-120h-60v-60h-60v-240h-240v240h-60v60h-60v120h-60v660z" />
    <glyph glyph-name="Zacute" unicode="&#x179;" horiz-adv-x="480" 
d="M120 720v120h60v60h60v60h240v-180h-60v-60h120v-420h-60v-60h-60v-60h-60v-60h180v-240h-480v420h60v60h60v60h60v60h-180v240h60z" />
    <glyph glyph-name="zacute" unicode="&#x17a;" horiz-adv-x="480" 
d="M180 300h-120v240h60v120h60v60h60v60h240v-180h-60v-60h120v-360h-60v-60h60v-240h-480v300h60v60h60v60z" />
    <glyph glyph-name="Zdotaccent" unicode="&#x17b;" horiz-adv-x="480" 
d="M60 -120v420h60v60h60v60h60v60h-180v240h120v180h240v-180h120v-420h-60v-60h-60v-60h-60v-60h180v-240h-480z" />
    <glyph glyph-name="zdotaccent" unicode="&#x17c;" horiz-adv-x="480" 
d="M60 -120v300h60v60h60v60h-120v240h120v180h240v-180h120v-360h-60v-60h60v-240h-480z" />
    <glyph glyph-name="Zcaron" unicode="&#x17d;" horiz-adv-x="480" 
d="M60 720h60v60h-60v180h480v-180h-60v-60h60v-420h-60v-60h-60v-60h-60v-60h180v-240h-480v420h60v60h60v60h60v60h-180v240z" />
    <glyph glyph-name="zcaron" unicode="&#x17e;" horiz-adv-x="480" 
d="M60 540h60v60h-60v180h240v-60h60v60h240v-180h-60v-420h-60v-60h60v-240h-480v300h60v60h60v60h-120v240z" />
    <glyph glyph-name="longs" unicode="&#x17f;" 
d="M60 -180v900h60v60h420v-60h60v-240h-240v60h-60v-720h-240z" />
    <glyph glyph-name="AEacute" unicode="&#x1fc;" horiz-adv-x="900" 
d="M120 660v60h300v120h60v60h60v60h240v-180h-60v-60h240v-240h-300v-60h240v-240h-240v-60h300v-240h-600v240h-60v-240h-240v780h60zM300 480v-120h60v120h-60z" />
    <glyph glyph-name="aeacute" unicode="&#x1fd;" horiz-adv-x="840" 
d="M60 -60v540h60v60h180v120h60v60h60v60h240v-180h-60v-60h240v-60h60v-540h-60v-60h-720v60h-60z" />
    <glyph glyph-name="circumflex" unicode="&#x2c6;" 
d="M60 660v180h60v60h60v60h300v-60h60v-60h60v-180h-240v60h-60v-60h-240z" />
    <glyph glyph-name="caron" unicode="&#x2c7;" 
d="M300 960v-60h60v60h240v-180h-60v-60h-60v-60h-300v60h-60v60h-60v180h240z" />
    <glyph glyph-name="breve" unicode="&#x2d8;" horiz-adv-x="420" 
d="M480 960v-240h-60v-60h-300v60h-60v240h420z" />
    <glyph glyph-name="dotaccent" unicode="&#x2d9;" horiz-adv-x="240" 
d="M60 840h240v-240h-240v240z" />
    <glyph glyph-name="ring" unicode="&#x2da;" horiz-adv-x="300" 
d="M360 960v-300h-300v300h300z" />
    <glyph glyph-name="ogonek" unicode="&#x2db;" horiz-adv-x="360" 
d="M300 -60v-60h60v-60h60v-180h-240v60h-60v60h-60v180h240z" />
    <glyph glyph-name="tilde" unicode="&#x2dc;" 
d="M60 840h60v60h480v-180h-60v-60h-480v180z" />
    <glyph glyph-name="uni030B" unicode="&#x30b;" horiz-adv-x="600" 
d="M120 840v60h60v60h480v-180h-60v-60h-60v-60h-480v180h60z" />
    <glyph glyph-name="uni0327" unicode="&#x327;" horiz-adv-x="360" 
d="M120 -180v60h60v60h240v-180h-60v-60h-60v-60h-240v180h60z" />
    <glyph glyph-name="uni0328" unicode="&#x328;" horiz-adv-x="360" 
d="M300 -60v-60h60v-60h60v-180h-240v60h-60v60h-60v180h240z" />
    <glyph glyph-name="tonos" unicode="&#x384;" horiz-adv-x="240" 
d="M120 780v60h180v-180h-60v-60h-180v180h60z" />
    <glyph glyph-name="dieresistonos" unicode="&#x385;" 
d="M60 600v300h180v60h240v-60h180v-300h-240v60h-120v-60h-240z" />
    <glyph glyph-name="Alphatonos" unicode="&#x386;" horiz-adv-x="600" 
d="M0 540v180h60v60h180v-60h360v-60h60v-780h-240v240h-60v-240h-240v660h-120zM360 360h60v120h-60v-120z" />
    <glyph glyph-name="Epsilontonos" unicode="&#x388;" horiz-adv-x="660" 
d="M120 720v60h180v-60h420v-240h-300v-60h240v-240h-240v-60h300v-240h-540v660h-120v180h60z" />
    <glyph glyph-name="Etatonos" unicode="&#x389;" horiz-adv-x="660" 
d="M120 720v60h180v-60h120v-360h60v360h240v-840h-240v240h-60v-240h-240v660h-120v180h60z" />
    <glyph glyph-name="Iotatonos" unicode="&#x38a;" horiz-adv-x="480" 
d="M60 540v180h60v60h180v-60h240v-240h-60v-360h60v-240h-360v240h60v360h-60v60h-120z" />
    <glyph glyph-name="Omicrontonos" unicode="&#x38c;" horiz-adv-x="660" 
d="M60 720h60v60h180v-60h360v-60h60v-720h-60v-60h-420v60h-60v600h-120v180zM420 480v-360h60v360h-60z" />
    <glyph glyph-name="Upsilontonos" unicode="&#x38e;" horiz-adv-x="720" 
d="M120 720v60h180v-60h120v-240h120v240h240v-420h-60v-120h-60v-60h-60v-240h-240v240h-60v60h-60v120h-60v240h-120v180h60z" />
    <glyph glyph-name="Omegatonos" unicode="&#x38f;" horiz-adv-x="660" 
d="M120 120v420h-60v180h60v60h180v-60h300v-60h60v-540h60v-240h-300v60h-60v-60h-300v240h60zM360 240h60v240h-60v-240z" />
    <glyph glyph-name="iotadieresistonos" unicode="&#x390;" horiz-adv-x="600" 
d="M240 780v60h240v-60h180v-300h-180v-360h60v-240h-240v60h-60v360h-60v180h-120v300h180z" />
    <glyph glyph-name="uni0413" unicode="&#x393;" horiz-adv-x="480" 
d="M60 720h480v-240h-240v-600h-240v840z" />
    <glyph glyph-name="uni0413" unicode="&#x413;" horiz-adv-x="480" 
d="M60 720h480v-240h-240v-600h-240v840z" />
    <glyph glyph-name="uni0394" unicode="&#x394;" horiz-adv-x="660" 
d="M60 300h60v180h60v180h60v60h300v-60h60v-180h60v-180h60v-420h-660v420zM360 120h60v180h-60v-180z" />
    <glyph glyph-name="Theta" unicode="&#x398;" horiz-adv-x="600" 
d="M60 660h60v60h480v-60h60v-720h-60v-60h-480v60h-60v720zM420 420v60h-120v-60h120zM300 180v-60h120v60h-120z" />
    <glyph glyph-name="Lambda" unicode="&#x39b;" horiz-adv-x="660" 
d="M60 -120v360h60v180h60v240h60v60h300v-60h60v-240h60v-180h60v-360h-240v180h-60v180h-60v-180h-60v-180h-240z" />
    <glyph glyph-name="Xi" unicode="&#x39e;" 
d="M60 480v240h540v-240h-540zM60 120h540v-240h-540v240zM540 420v-240h-420v240h420z" />
    <glyph glyph-name="uni041F" unicode="&#x3a0;" 
d="M60 720h540v-840h-240v600h-60v-600h-240v840z" />
    <glyph glyph-name="uni041F" unicode="&#x41f;" 
d="M60 720h540v-840h-240v600h-60v-600h-240v840z" />
    <glyph glyph-name="Sigma" unicode="&#x3a3;" horiz-adv-x="480" 
d="M120 240v120h-60v360h480v-240h-120v-60h60v-240h-60v-60h120v-240h-480v360h60z" />
    <glyph glyph-name="uni0424" unicode="&#x3a6;" horiz-adv-x="720" 
d="M60 60v480h60v60h180v120h240v-120h180v-60h60v-480h-60v-60h-180v-120h-240v120h-180v60h-60z" />
    <glyph glyph-name="uni0424" unicode="&#x424;" horiz-adv-x="720" 
d="M60 60v480h60v60h180v120h240v-120h180v-60h60v-480h-60v-60h-180v-120h-240v120h-180v60h-60z" />
    <glyph glyph-name="Psi" unicode="&#x3a8;" horiz-adv-x="720" 
d="M60 720h720v-480h-60v-60h-180v-300h-240v300h-180v60h-60v480z" />
    <glyph glyph-name="uni03A9" unicode="&#x3a9;" horiz-adv-x="660" 
d="M60 120h60v540h60v60h420v-60h60v-540h60v-240h-300v60h-60v-60h-300v240zM360 240h60v240h-60v-240z" />
    <glyph glyph-name="uni03A9" unicode="&#x2126;" horiz-adv-x="660" 
d="M60 120h60v540h60v60h420v-60h60v-540h60v-240h-300v60h-60v-60h-300v240zM360 240h60v240h-60v-240z" />
    <glyph glyph-name="alphatonos" unicode="&#x3ac;" horiz-adv-x="660" 
d="M60 480h60v60h60v120h60v60h60v60h240v-180h-60v-60h240v-240h-60v-60h-60v-60h60v-60h60v-240h-600v60h-60v540zM300 300v-180h60v180h-60z" />
    <glyph glyph-name="epsilontonos" unicode="&#x3ad;" 
d="M120 480v60h60v120h60v60h60v60h240v-180h-60v-60h60v-60h60v-240h-120v-60h120v-240h-60v-60h-420v60h-60v540h60z" />
    <glyph glyph-name="etatonos" unicode="&#x3ae;" 
d="M60 -120v660h120v120h60v60h60v60h240v-180h-60v-60h60v-60h60v-720h-240v540h-60v-420h-240z" />
    <glyph glyph-name="iotatonos" unicode="&#x3af;" horiz-adv-x="420" 
d="M60 540h60v120h60v60h60v60h240v-180h-60v-60h-60v-420h60v-240h-240v60h-60v360h-60v240z" />
    <glyph glyph-name="upsilondieresistonos" unicode="&#x3b0;" horiz-adv-x="600" 
d="M60 780h180v60h240v-60h180v-300h-60v-540h-60v-60h-420v60h-60v840zM300 120h60v180h-60v-180z" />
    <glyph glyph-name="alpha" unicode="&#x3b1;" horiz-adv-x="660" 
d="M120 480v60h600v-240h-60v-60h-60v-60h60v-60h60v-240h-600v60h-60v540h60zM360 120v180h-60v-180h60z" />
    <glyph glyph-name="beta" unicode="&#x3b2;" 
d="M60 -240v900h60v60h420v-60h60v-720h-60v-60h-240v-120h-240zM300 120h60v60h-60v-60zM300 480v-60h60v60h-60z" />
    <glyph glyph-name="gamma" unicode="&#x3b3;" horiz-adv-x="660" 
d="M60 300v240h240v-60h60v-120h120v180h240v-360h-60v-120h-60v-60h-60v-300h-240v300h-60v60h-60v120h-60v120h-60z" />
    <glyph glyph-name="delta" unicode="&#x3b4;" 
d="M60 360h60v60h-60v300h540v-240h-120v-60h60v-60h60v-420h-60v-60h-420v60h-60v420zM300 120h60v60h-60v-60z" />
    <glyph glyph-name="epsilon" unicode="&#x3b5;" 
d="M120 480v60h420v-60h60v-240h-120v-60h120v-240h-60v-60h-420v60h-60v540h60z" />
    <glyph glyph-name="zeta" unicode="&#x3b6;" 
d="M60 360h60v60h60v60h-120v240h540v-300h-60v-60h-60v-60h-60v-60h-60v-60h-60v-60h240v-60h60v-240h-240v60h-240v60h-60v420z" />
    <glyph glyph-name="eta" unicode="&#x3b7;" 
d="M60 540h480v-60h60v-720h-240v540h-60v-420h-240v660z" />
    <glyph glyph-name="theta" unicode="&#x3b8;" horiz-adv-x="480" 
d="M60 -60v720h60v60h360v-60h60v-720h-60v-60h-360v60h-60z" />
    <glyph glyph-name="iota" unicode="&#x3b9;" horiz-adv-x="360" 
d="M360 540v-420h60v-240h-240v60h-60v360h-60v240h300z" />
    <glyph glyph-name="kappa" unicode="&#x3ba;" 
d="M60 -120v660h240v-60h60v60h240v-240h-60v-60h-60v-60h60v-60h60v-240h-240v60h-60v-60h-240z" />
    <glyph glyph-name="lambda" unicode="&#x3bb;" horiz-adv-x="600" 
d="M60 -120v300h60v120h60v120h-60v300h240v-120h60v-120h60v-120h60v-60h60v-120h60v-300h-240v120h-120v-120h-240z" />
    <glyph glyph-name="nu" unicode="&#x3bd;" horiz-adv-x="660" 
d="M300 540v-60h60v-240h120v300h240v-420h-60v-120h-60v-60h-60v-60h-240v60h-60v60h-60v120h-60v180h-60v240h240z" />
    <glyph glyph-name="xi" unicode="&#x3be;" 
d="M60 -60v780h540v-240h-240v-60h120v-240h-180v-60h240v-60h60v-240h-240v60h-240v60h-60z" />
    <glyph glyph-name="pi" unicode="&#x3c0;" horiz-adv-x="600" 
d="M120 120v180h-60v240h600v-240h-60v-180h60v-240h-240v60h-60v-60h-300v240h60z" />
    <glyph glyph-name="rho" unicode="&#x3c1;" 
d="M60 480h60v60h420v-60h60v-480h-60v-60h-240v-240h-240v780zM300 180h60v120h-60v-120z" />
    <glyph glyph-name="sigma1" unicode="&#x3c2;" 
d="M60 -60v540h60v60h420v-60h60v-240h-240v60h-60v-180h240v-60h60v-360h-60v-60h-240v240h-180v60h-60z" />
    <glyph glyph-name="sigma" unicode="&#x3c3;" horiz-adv-x="600" 
d="M120 480v60h540v-240h-60v-360h-60v-60h-420v60h-60v540h60zM360 120v180h-60v-180h60z" />
    <glyph glyph-name="tau" unicode="&#x3c4;" horiz-adv-x="480" 
d="M60 300v240h480v-240h-120v-180h60v-240h-240v60h-60v360h-120z" />
    <glyph glyph-name="upsilon" unicode="&#x3c5;" 
d="M540 540v-60h60v-540h-60v-60h-420v60h-60v600h480zM300 300v-180h60v180h-60z" />
    <glyph glyph-name="phi" unicode="&#x3c6;" horiz-adv-x="720" 
d="M60 0v480h60v60h600v-60h60v-480h-60v-60h-180v-180h-240v180h-180v60h-60z" />
    <glyph glyph-name="chi" unicode="&#x3c7;" horiz-adv-x="720" 
d="M60 300v240h300v-60h120v60h240v-240h-60v-120h-60v-60h60v-120h120v-240h-300v60h-120v-60h-240v240h60v120h60v60h-60v120h-120z" />
    <glyph glyph-name="psi" unicode="&#x3c8;" horiz-adv-x="720" 
d="M60 -60v600h240v60h240v-60h240v-600h-60v-60h-600v60h-60z" />
    <glyph glyph-name="omega" unicode="&#x3c9;" horiz-adv-x="840" 
d="M60 180v300h60v60h720v-60h60v-300h-60v-120h-60v-120h-60v-60h-180v60h-120v-60h-180v60h-60v120h-60v120h-60z" />
    <glyph glyph-name="iotadieresis" unicode="&#x3ca;" horiz-adv-x="420" 
d="M480 780v-300h-60v-360h60v-240h-240v60h-60v360h-60v180h-60v300h420z" />
    <glyph glyph-name="upsilondieresis" unicode="&#x3cb;" 
d="M60 -60v840h240v-240h60v240h240v-840h-60v-60h-420v60h-60zM360 120v180h-60v-180h60z" />
    <glyph glyph-name="omicrontonos" unicode="&#x3cc;" 
d="M120 480v60h60v120h60v60h60v60h240v-180h-60v-60h60v-60h60v-540h-60v-60h-420v60h-60v540h60zM360 120v180h-60v-180h60z" />
    <glyph glyph-name="upsilontonos" unicode="&#x3cd;" 
d="M60 -60v600h120v120h60v60h60v60h240v-180h-60v-60h60v-60h60v-540h-60v-60h-420v60h-60zM300 300v-180h60v180h-60z" />
    <glyph glyph-name="omegatonos" unicode="&#x3ce;" horiz-adv-x="840" 
d="M60 180v300h60v60h240v120h60v60h60v60h240v-180h-60v-60h180v-60h60v-300h-60v-120h-60v-120h-60v-60h-180v60h-120v-60h-180v60h-60v120h-60v120h-60z" />
    <glyph glyph-name="uni0402" unicode="&#x402;" horiz-adv-x="660" 
d="M60 720h480v-240h-120v-60h240v-60h60v-420h-60v-60h-480v600h-120v240zM480 120v60h-60v-60h60z" />
    <glyph glyph-name="uni0403" unicode="&#x403;" horiz-adv-x="480" 
d="M60 -120v840h60v120h60v60h60v60h240v-180h-60v-60h120v-240h-240v-600h-240z" />
    <glyph glyph-name="uni0404" unicode="&#x404;" 
d="M120 660v60h420v-60h60v-240h-120v-240h120v-240h-60v-60h-420v60h-60v720h60zM300 420h60v60h-60v-60zM360 180h-60v-60h60v60z" />
    <glyph glyph-name="uni0409" unicode="&#x409;" horiz-adv-x="960" 
d="M60 120h120v600h540v-300h240v-60h60v-420h-60v-60h-480v600h-60v-540h-60v-60h-300v240zM720 120h60v60h-60v-60z" />
    <glyph glyph-name="uni040A" unicode="&#x40a;" horiz-adv-x="840" 
d="M300 720v-300h60v300h240v-300h240v-60h60v-420h-60v-60h-480v300h-60v-300h-240v840h240zM600 180v-60h60v60h-60z" />
    <glyph glyph-name="uni040B" unicode="&#x40b;" horiz-adv-x="660" 
d="M60 480v240h480v-240h-120v-60h240v-60h60v-480h-240v300h-60v-300h-240v600h-120z" />
    <glyph glyph-name="uni040C" unicode="&#x40c;" horiz-adv-x="720" 
d="M60 720h180v120h60v60h60v60h240v-180h-60v-60h240v-240h-120v-60h-60v-60h-60v-120h60v-60h60v-60h60v-240h-240v60h-60v60h-60v60h-60v-180h-240v840zM360 540v60h60v60h-120v-120h60z" />
    <glyph glyph-name="uni040E" unicode="&#x40e;" horiz-adv-x="600" 
d="M60 720h60v240h480v-240h60v-420h-60v-240h-60v-120h-60v-60h-300v300h-60v120h-60v420zM300 480h120v180h-120v-180z" />
    <glyph glyph-name="uni040F" unicode="&#x40f;" horiz-adv-x="600" 
d="M60 -120v840h240v-600h120v600h240v-840h-180v-120h-240v120h-180z" />
    <glyph glyph-name="uni0411" unicode="&#x411;" 
d="M540 720v-240h-240v-60h240v-60h60v-420h-60v-60h-480v840h480zM300 120h60v60h-60v-60z" />
    <glyph glyph-name="uni0414" unicode="&#x414;" horiz-adv-x="720" 
d="M120 120v300h60v240h60v60h480v-600h60v-360h-240v120h-240v-120h-240v360h60zM360 240v-120h120v360h-60v-240h-60z" />
    <glyph glyph-name="uni0416" unicode="&#x416;" horiz-adv-x="1080" 
d="M60 -120v240h60v60h60v60h60v120h-60v60h-60v60h-60v240h240v-60h60v-60h60v-60h60v180h240v-180h60v60h60v60h60v60h240v-240h-60v-60h-60v-60h-60v-120h60v-60h60v-60h60v-240h-240v60h-60v60h-60v60h-60v-180h-240v180h-60v-60h-60v-60h-60v-60h-240z" />
    <glyph glyph-name="uni0417" unicode="&#x417;" 
d="M60 180h120v240h-120v240h60v60h420v-60h60v-720h-60v-60h-420v60h-60v240zM360 120v60h-60v-60h60zM300 420h60v60h-60v-60z" />
    <glyph glyph-name="uni0418" unicode="&#x418;" 
d="M60 660h60v60h480v-840h-240v600h-60v-600h-240v780z" />
    <glyph glyph-name="uni0419" unicode="&#x419;" 
d="M120 660v300h420v-240h60v-840h-240v600h-60v-600h-240v780h60z" />
    <glyph glyph-name="uni041A" unicode="&#x41a;" horiz-adv-x="720" 
d="M60 -120v840h240v-180h60v60h60v60h60v60h300v-240h-120v-60h-60v-60h-60v-120h60v-60h60v-60h60v-240h-240v60h-60v60h-60v60h-60v-180h-240z" />
    <glyph glyph-name="uni041B" unicode="&#x41b;" horiz-adv-x="660" 
d="M180 120v600h540v-840h-240v600h-60v-540h-60v-60h-300v240h120z" />
    <glyph glyph-name="uni0423" unicode="&#x423;" horiz-adv-x="600" 
d="M60 720h240v-240h120v240h240v-420h-60v-240h-60v-120h-60v-60h-300v300h-60v120h-60v420z" />
    <glyph glyph-name="uni0426" unicode="&#x426;" horiz-adv-x="600" 
d="M60 -120v840h240v-600h60v600h240v-600h60v-360h-240v120h-360z" />
    <glyph glyph-name="uni0427" unicode="&#x427;" 
d="M60 240v480h240v-300h60v300h240v-840h-240v300h-240v60h-60z" />
    <glyph glyph-name="uni0428" unicode="&#x428;" horiz-adv-x="720" 
d="M60 720h240v-600v600h240v-600v600h240v-840h-720v840z" />
    <glyph glyph-name="uni0429" unicode="&#x429;" horiz-adv-x="780" 
d="M60 -120v840h240v-600v600h240v-600v600h240v-600h60v-360h-240v120h-540z" />
    <glyph glyph-name="uni042A" unicode="&#x42a;" horiz-adv-x="600" 
d="M360 720v-300h240v-60h60v-420h-60v-60h-480v600h-60v240h300zM420 120v60h-60v-60h60z" />
    <glyph glyph-name="uni042B" unicode="&#x42b;" horiz-adv-x="780" 
d="M60 720h300v-300h240v300h240v-840h-720v600h-60v240zM420 120v60h-60v-60h60z" />
    <glyph glyph-name="uni042C" unicode="&#x42c;" 
d="M60 720h240v-300h240v-60h60v-420h-60v-60h-480v840zM300 180v-60h60v60h-60z" />
    <glyph glyph-name="uni042D" unicode="&#x42d;" 
d="M120 660v60h420v-60h60v-720h-60v-60h-420v60h-60v240h120v240h-120v240h60zM300 480v-60h60v60h-60zM300 120h60v60h-60v-60z" />
    <glyph glyph-name="uni042E" unicode="&#x42e;" horiz-adv-x="840" 
d="M300 720v-360h60v300h60v60h420v-60h60v-720h-60v-60h-420v60h-60v180h-60v-240h-240v840h240zM600 120h60v360h-60v-360z" />
    <glyph glyph-name="uni042F" unicode="&#x42f;" 
d="M60 660h60v60h480v-840h-240v240h-60v-240h-240v780zM300 360h60v120h-60v-120z" />
    <glyph glyph-name="uni0431" unicode="&#x431;" 
d="M60 600h60v60h420v-300h60v-420h-60v-60h-480v720zM360 120v60h-60v-60h60z" />
    <glyph glyph-name="uni0432" unicode="&#x432;" 
d="M540 540v-60h60v-540h-60v-60h-480v660h480z" />
    <glyph glyph-name="uni0433" unicode="&#x433;" horiz-adv-x="420" 
d="M60 540h420v-240h-180v-420h-240v660z" />
    <glyph glyph-name="uni0434" unicode="&#x434;" horiz-adv-x="660" 
d="M120 120v180h60v180h60v60h420v-420h60v-360h-240v120h-180v-120h-240v360h60z" />
    <glyph glyph-name="uni0436" unicode="&#x436;" horiz-adv-x="840" 
d="M120 120v60h60v60h-60v60h-60v240h240v-60h60v60h240v-60h60v60h240v-240h-60v-60h-60v-60h60v-60h60v-240h-240v60h-60v-60h-240v60h-60v-60h-240v240h60z" />
    <glyph glyph-name="uni0437" unicode="&#x437;" 
d="M60 -60v240h120v60h-120v240h60v60h420v-60h60v-540h-60v-60h-420v60h-60z" />
    <glyph glyph-name="uni0438" unicode="&#x438;" 
d="M60 480h60v60h480v-660h-240v420h-60v-420h-240v600z" />
    <glyph glyph-name="uni0439" unicode="&#x439;" 
d="M120 480v300h420v-240h60v-660h-240v420h-60v-420h-240v600h60z" />
    <glyph glyph-name="uni043A" unicode="&#x43a;" horiz-adv-x="600" 
d="M60 -120v660h240v-60h60v60h300v-240h-120v-60h-60v-60h60v-60h60v-240h-240v60h-60v-60h-240z" />
    <glyph glyph-name="uni043B" unicode="&#x43b;" horiz-adv-x="600" 
d="M120 120v420h540v-660h-240v420h-60v-360h-60v-60h-240v240h60z" />
    <glyph glyph-name="uni043C" unicode="&#x43c;" horiz-adv-x="720" 
d="M60 -120v600h60v60h600v-60h60v-600h-720z" />
    <glyph glyph-name="uni043D" unicode="&#x43d;" 
d="M60 -120v660h240v-240h60v240h240v-660h-240v180h-60v-180h-240z" />
    <glyph glyph-name="uni043F" unicode="&#x43f;" 
d="M60 540h540v-660h-240v420h-60v-420h-240v660z" />
    <glyph glyph-name="uni0442" unicode="&#x442;" horiz-adv-x="480" 
d="M60 540h480v-240h-120v-420h-240v420h-120v240z" />
    <glyph glyph-name="uni0443" unicode="&#x443;" horiz-adv-x="600" 
d="M60 540h240v-120h120v120h240v-300h-60v-240h-60v-120h-60v-60h-300v300h-60v120h-60v300z" />
    <glyph glyph-name="uni0444" unicode="&#x444;" horiz-adv-x="720" 
d="M60 0v420h60v60h180v180h240v-180h180v-60h60v-420h-60v-60h-180v-180h-240v180h-180v60h-60z" />
    <glyph glyph-name="uni0446" unicode="&#x446;" horiz-adv-x="600" 
d="M60 -120v660h240v-420h60v420h240v-420h60v-360h-240v120h-360z" />
    <glyph glyph-name="uni0447" unicode="&#x447;" 
d="M60 120v420h240v-240h60v240h240v-660h-240v180h-240v60h-60z" />
    <glyph glyph-name="uni0448" unicode="&#x448;" horiz-adv-x="720" 
d="M60 540h240v-420v420h240v-420v420h240v-660h-720v660z" />
    <glyph glyph-name="uni0449" unicode="&#x449;" horiz-adv-x="780" 
d="M60 -120v660h240v-420v420h240v-420v420h240v-420h60v-360h-240v120h-540z" />
    <glyph glyph-name="uni044A" unicode="&#x44a;" horiz-adv-x="600" 
d="M60 540h300v-180h240v-60h60v-360h-60v-60h-480v420h-60v240z" />
    <glyph glyph-name="uni044B" unicode="&#x44b;" horiz-adv-x="780" 
d="M60 540h300v-180h240v180h240v-660h-720v420h-60v240z" />
    <glyph glyph-name="uni044C" unicode="&#x44c;" 
d="M60 -120v660h240v-180h240v-60h60v-360h-60v-60h-480z" />
    <glyph glyph-name="uni044D" unicode="&#x44d;" 
d="M60 -60v240h120v60h-120v240h60v60h420v-60h60v-540h-60v-60h-420v60h-60z" />
    <glyph glyph-name="uni044E" unicode="&#x44e;" horiz-adv-x="840" 
d="M300 540v-240h60v180h60v60h420v-60h60v-540h-60v-60h-420v60h-60v120h-60v-180h-240v660h240zM660 120v180h-60v-180h60z" />
    <glyph glyph-name="uni044F" unicode="&#x44f;" 
d="M60 480h60v60h480v-660h-240v180h-60v-180h-240v600z" />
    <glyph glyph-name="uni0452" unicode="&#x452;" horiz-adv-x="600" 
d="M120 540v60h240v-60h120v-180h120v-60h60v-540h-60v-60h-240v180h-240v420h-60v240h60zM420 -60v180h-60v-180h60z" />
    <glyph glyph-name="uni0453" unicode="&#x453;" horiz-adv-x="420" 
d="M60 -120v660h60v120h60v60h60v60h240v-180h-60v-60h60v-240h-180v-420h-240z" />
    <glyph glyph-name="uni0454" unicode="&#x454;" 
d="M60 -60v540h60v60h420v-60h60v-240h-120v-60h120v-240h-60v-60h-420v60h-60z" />
    <glyph glyph-name="uni0459" unicode="&#x459;" horiz-adv-x="900" 
d="M120 120v420h540v-180h240v-60h60v-360h-60v-60h-480v420h-60v-360h-60v-60h-240v240h60z" />
    <glyph glyph-name="uni045A" unicode="&#x45a;" horiz-adv-x="840" 
d="M60 -120v660h240v-240h60v240h240v-180h240v-60h60v-360h-60v-60h-480v180h-60v-180h-240z" />
    <glyph glyph-name="uni045B" unicode="&#x45b;" horiz-adv-x="600" 
d="M120 540v60h240v-60h120v-180h120v-60h60v-420h-240v240h-60v-240h-240v420h-60v240h60z" />
    <glyph glyph-name="uni045C" unicode="&#x45c;" horiz-adv-x="600" 
d="M60 -120v660h60v120h60v60h60v60h240v-180h-60v-60h240v-240h-120v-60h-60v-60h60v-60h60v-240h-240v60h-60v-60h-240z" />
    <glyph glyph-name="uni045E" unicode="&#x45e;" horiz-adv-x="600" 
d="M120 540v240h480v-240h60v-300h-60v-240h-60v-120h-60v-60h-300v300h-60v120h-60v300h60zM300 480v-60h120v60h-120z" />
    <glyph glyph-name="uni045F" unicode="&#x45f;" horiz-adv-x="600" 
d="M60 -120v660h240v-420h120v420h240v-660h-180v-120h-240v120h-180z" />
    <glyph glyph-name="uni0490" unicode="&#x490;" horiz-adv-x="420" 
d="M240 720v60h240v-300h-180v-600h-240v840h180z" />
    <glyph glyph-name="uni0491" unicode="&#x491;" horiz-adv-x="420" 
d="M240 540v60h240v-300h-180v-420h-240v660h180z" />
    <glyph glyph-name="Wgrave" unicode="&#x1e80;" horiz-adv-x="840" 
d="M60 180v540h240v-360h60v420h-60v180h240v-60h60v-60h60v-120h240v-540h-60v-120h-60v-120h-60v-60h-180v60h-120v-60h-180v60h-60v120h-60v120h-60zM600 660v-300h60v300h-60z" />
    <glyph glyph-name="wgrave" unicode="&#x1e81;" horiz-adv-x="840" 
d="M60 540h240v-240h60v300h-60v180h240v-60h60v-60h60v-120h240v-360h-60v-120h-60v-120h-60v-60h-180v60h-120v-60h-180v60h-60v120h-60v120h-60v360zM600 480v-180h60v180h-60z" />
    <glyph glyph-name="Wacute" unicode="&#x1e82;" horiz-adv-x="840" 
d="M300 720v120h60v60h60v60h240v-180h-60v-420h60v360h240v-540h-60v-120h-60v-120h-60v-60h-180v60h-120v-60h-180v60h-60v120h-60v120h-60v540h240zM360 360v300h-60v-300h60z" />
    <glyph glyph-name="wacute" unicode="&#x1e83;" horiz-adv-x="840" 
d="M300 540v120h60v60h60v60h240v-180h-60v-300h60v240h240v-360h-60v-120h-60v-120h-60v-60h-180v60h-120v-60h-180v60h-60v120h-60v120h-60v360h240zM360 300v180h-60v-180h60z" />
    <glyph glyph-name="Wdieresis" unicode="&#x1e84;" horiz-adv-x="840" 
d="M60 720h180v240h240v-240h60v240h240v-240h120v-540h-60v-120h-60v-120h-60v-60h-180v60h-120v-60h-180v60h-60v120h-60v120h-60v540zM600 360h60v300h-60v-300zM360 360v300h-60v-300h60z" />
    <glyph glyph-name="wdieresis" unicode="&#x1e85;" horiz-adv-x="840" 
d="M60 540h180v240h240v-240h60v240h240v-240h120v-360h-60v-120h-60v-120h-60v-60h-180v60h-120v-60h-180v60h-60v120h-60v120h-60v360zM600 300h60v180h-60v-180zM360 300v180h-60v-180h60z" />
    <glyph glyph-name="endash" unicode="&#x2013;" 
d="M60 300h540v-240h-540v240z" />
    <glyph glyph-name="quoteleft" unicode="&#x2018;" horiz-adv-x="240" 
d="M60 780h240v-360h-240v360z" />
    <glyph glyph-name="quoteright" unicode="&#x2019;" horiz-adv-x="240" 
d="M60 780h240v-360h-240v360z" />
    <glyph glyph-name="quotesinglbase" unicode="&#x201a;" horiz-adv-x="240" 
d="M300 120v-300h-60v-120h-180v420h240z" />
    <glyph glyph-name="quotedblleft" unicode="&#x201c;" 
d="M360 420v360h240v-360h-240zM60 780h240v-360h-240v360z" />
    <glyph glyph-name="quotedblright" unicode="&#x201d;" 
d="M360 420v360h240v-360h-240zM60 780h240v-360h-240v360z" />
    <glyph glyph-name="quotedblbase" unicode="&#x201e;" horiz-adv-x="420" 
d="M60 120h420v-300h-60v-120h-360v420z" />
    <glyph glyph-name="dagger" unicode="&#x2020;" horiz-adv-x="480" 
d="M180 600v120h240v-120h120v-240h-120v-480h-240v480h-120v240h120z" />
    <glyph glyph-name="daggerdbl" unicode="&#x2021;" horiz-adv-x="480" 
d="M180 600v120h240v-120h120v-240h-120v-120h120v-240h-120v-120h-240v120h-120v240h120v120h-120v240h120z" />
    <glyph glyph-name="bullet" unicode="&#x2022;" horiz-adv-x="420" 
d="M60 180v300h60v60h300v-60h60v-300h-60v-60h-300v60h-60z" />
    <glyph glyph-name="ellipsis" unicode="&#x2026;" horiz-adv-x="600" 
d="M660 120v-240h-600v240h600z" />
    <glyph glyph-name="perthousand" unicode="&#x2030;" horiz-adv-x="780" 
d="M60 360v360h540v-240h-60v-120h-60v-120h360v-360h-780v240h60v120h60v120h-120z" />
    <glyph glyph-name="guilsinglleft" unicode="&#x2039;" horiz-adv-x="360" 
d="M60 420h60v60h60v60h60v60h180v-240h-60v-60h60v-240h-180v60h-60v60h-60v60h-60v180z" />
    <glyph glyph-name="guilsinglright" unicode="&#x203a;" horiz-adv-x="360" 
d="M240 600v-60h60v-60h60v-60h60v-180h-60v-60h-60v-60h-60v-60h-180v240h60v60h-60v240h180z" />
    <glyph glyph-name="Euro" unicode="&#x20ac;" horiz-adv-x="600" 
d="M120 420v240h60v60h420v-60h60v-300h-240v-120h240v-300h-60v-60h-420v60h-60v180h-60v300h60zM360 480v-60h60v60h-60z" />
    <glyph glyph-name="uni2116" unicode="&#x2116;" horiz-adv-x="1020" 
d="M540 720v-60h60v60h420v-60h60v-720h-480v-60h-240v600h-60v-600h-240v840h480zM780 360h60v120h-60v-120z" />
    <glyph glyph-name="uni2117" unicode="&#x2117;" horiz-adv-x="960" 
d="M120 660v60h120v60h600v-60h120v-60h60v-780h-60v-60h-120v-60h-600v60h-120v60h-60v780h60zM540 120v-120h180v60h60v120h-60v-60h-180z" />
    <glyph glyph-name="trademark" unicode="&#x2122;" horiz-adv-x="900" 
d="M900 720v-60h60v-300h-840v180h-60v180h840z" />
    <glyph glyph-name="radical" unicode="&#x221a;" horiz-adv-x="720" 
d="M420 360v480h360v-240h-120v-780h-360v120h-60v120h-60v60h-120v240h360z" />
    <glyph glyph-name="infinity" unicode="&#x221e;" horiz-adv-x="840" 
d="M60 540h60v60h720v-60h60v-420h-60v-60h-720v60h-60v420zM660 300v60h-60v-60h60zM300 300h60v60h-60v-60z" />
    <glyph glyph-name="integral" unicode="&#x222b;" horiz-adv-x="720" 
d="M300 0v840h60v60h360v-60h60v-240h-240v-840h-60v-60h-360v60h-60v240h240z" />
    <glyph glyph-name="approxequal" unicode="&#x2248;" horiz-adv-x="660" 
d="M120 540v60h600v-480h-60v-60h-600v480h60z" />
    <glyph glyph-name="notequal" unicode="&#x2260;" 
d="M60 540h240v60h240v-60h60v-420h-240v-60h-240v60h-60v420z" />
    <glyph glyph-name="ampersand.1" horiz-adv-x="600" 
d="M120 660v60h420v-240h-240v-60h360v-240h-60v-240h-60v-60h-420v60h-60v720h60zM300 180v-60h60v60h-60z" />
    <glyph glyph-name="k.alt1" horiz-adv-x="660" 
d="M60 720h240v-360h60v60h60v60h60v60h240v-180h-60v-60h-60v-120h60v-60h60v-240h-240v120h-60v60h-60v60h-60v-240h-240v840z" />
    <glyph glyph-name="a.alt1" 
d="M60 240h60v60h-60v180h60v60h420v-60h60v-600h-480v60h-60v300zM300 60h60v60h-60v-60zM300 360v-60h60v60h-60z" />
    <glyph glyph-name="at.alt1" horiz-adv-x="960" 
d="M120 720v60h120v60h600v-60h120v-60h60v-540h-60v-60h-120v-240h-600v60h-120v60h-60v720h60zM480 300v-60h60v60h-60z" />
  </font>
</defs>
</svg>
